<?xml version="1.0" encoding="utf-8"?>
<!-- Generator: Adobe Illustrator 15.0.1, SVG Export Plug-In . SVG Version: 6.00 Build 0)  -->
<!DOCTYPE svg PUBLIC "-//W3C//DTD SVG 1.1//EN" "http://www.w3.org/Graphics/SVG/1.1/DTD/svg11.dtd">
<svg version="1.1" id="Layer_1" xmlns="http://www.w3.org/2000/svg" xmlns:xlink="http://www.w3.org/1999/xlink" x="0px" y="0px"
	 width="307px" height="278px" viewBox="0 0 307 278" enable-background="new 0 0 307 278" xml:space="preserve">
<g>
	<g>
		<g>
			<path fill="#FFFFFF" d="M197.756,244.751c5.007-14.146,5.719-29.215,8.257-43.89c2.129-12.311,5.367-25.845-5.073-35.204
				c-8.11-7.271-20.418-7.986-30.71-7.407c-5.754,0.323-11.511,0.335-17.251,0.907c-3.903,0.389-8.541,0.887-11.619,3.561
				c-0.516,0.448-0.191,1.339,0.433,0.797c3.706-3.219,10.042-3.238,14.664-3.576c4.792-0.351,9.603-0.363,14.4-0.634
				c10.612-0.597,22.011,0.794,30.221,8.154c10.18,9.125,5.354,24.723,3.447,36.324c-2.259,13.738-3.071,27.737-7.753,40.966
				C196.498,245.522,197.555,245.32,197.756,244.751L197.756,244.751z"/>
		</g>
	</g>
	<g>
		<g>
			<path fill="#FFFFFF" d="M177.944,183.085c-6.622,8.493-11.987,16.304-12.093,27.429c-0.121,12.707,5.23,24.781,4.945,37.54
				c-0.017,0.772,1.03,0.285,1.043-0.279c0.233-10.489-2.955-20.551-4.431-30.852c-0.854-5.964-0.79-12.057,1.217-17.78
				c2.028-5.785,6.272-10.729,9.988-15.495C179.087,183.041,178.422,182.472,177.944,183.085L177.944,183.085z"/>
		</g>
	</g>
	<g>
		<g>
			<path fill="#FFFFFF" d="M158.84,256.851c-18.53,0.065-12.384-29.389-15.482-40.85c-0.184-0.681-1.175,0.014-1.032,0.543
				c3.188,11.792-3.088,41.485,16.159,41.418C159.031,257.96,159.537,256.849,158.84,256.851L158.84,256.851z"/>
		</g>
	</g>
	<g>
		<g>
			<path fill="#FFFFFF" d="M199.498,238.07c12.958-16.253,28.52-0.279,42.398,5.317c0.518,0.209,1.19-0.833,0.596-1.072
				c-8.484-3.422-15.667-9.481-24.527-12.059c-7.807-2.271-14.313,1.199-19.137,7.251
				C198.348,238.11,199.015,238.678,199.498,238.07L199.498,238.07z"/>
		</g>
	</g>
	<g>
		<g>
			<path fill="#FFFFFF" d="M250.599,258.749c-12.935,0.999-25.764,2.771-38.754,3.057c-11.365,0.25-30.735,0.9-37.519-10.481
				c-0.327-0.549-1.239,0.293-0.953,0.773c6.245,10.48,22.734,10.689,33.372,10.842c14.588,0.208,28.994-1.959,43.498-3.079
				C250.783,259.818,251.283,258.696,250.599,258.749L250.599,258.749z"/>
		</g>
	</g>
	<g>
		<g>
			<path fill="#FFFFFF" d="M178.959,256.869c-4.326,1.149-8.711,1.245-13.158,1.247c-0.547,0.001-1.053,1.111-0.355,1.111
				c4.536-0.003,9.012-0.112,13.42-1.284C179.405,257.8,179.703,256.671,178.959,256.869L178.959,256.869z"/>
		</g>
	</g>
	<g>
		<g>
			<path fill="#FFFFFF" d="M174.053,188.285c-5.334,8.714-16.057,12.537-25.892,11.374c-3.589-0.424-6.986-1.128-10.629-0.941
				c-4.853,0.249-9.058,2.586-14.009,1.198c-0.54-0.151-1.201,0.903-0.597,1.072c4.898,1.373,9.377-0.491,14.25-1.16
				c5.526-0.758,11.125,1.477,16.705,1.159c8.333-0.475,16.694-5.33,21.03-12.415C175.344,187.867,174.408,187.703,174.053,188.285
				L174.053,188.285z"/>
		</g>
	</g>
	<g>
		<g>
			<path fill="#FFFFFF" d="M168.332,157.498c-6.625,0.295-12.471,5.319-16.966,9.767c-0.556,0.55,0.13,1.097,0.67,0.563
				c4.218-4.172,9.752-8.943,15.94-9.218C168.52,158.585,169.023,157.468,168.332,157.498L168.332,157.498z"/>
		</g>
	</g>
	<g>
		<g>
			<path fill="#FFFFFF" d="M116.177,199.968c-6.065,3.17-13.961,4.479-18.825,9.641c-3.175,3.369-10.25-2.104-13.276-3.86
				c-3.956-2.296-7.901-4.367-12.444-5.199c-0.548-0.101-1.197,0.963-0.597,1.072c9.035,1.655,15.831,8.532,24.681,10.758
				c0.238,0.061,0.487-0.066,0.633-0.255c4.932-6.34,13.226-7.646,20.001-11.188C116.89,200.654,116.904,199.588,116.177,199.968
				L116.177,199.968z"/>
		</g>
	</g>
	<g>
		<g>
			<path fill="#FFFFFF" d="M141.241,161.569c-2.265,2.997-4.697,5.862-6.961,8.859c-0.462,0.611,0.201,1.184,0.67,0.563
				c2.265-2.997,4.697-5.862,6.961-8.859C142.374,161.521,141.71,160.948,141.241,161.569L141.241,161.569z"/>
		</g>
	</g>
	<g>
		<g>
			<path fill="#FFFFFF" d="M133.133,169.679c-7.046,4.791-17.429,1.248-24.745-1.101c-7.295-2.341-14.285-5.53-21.568-7.896
				c-0.533-0.174-1.199,0.877-0.597,1.072c8.979,2.917,17.554,6.897,26.67,9.428c6.562,1.821,14.655,3.386,20.672-0.706
				C134.143,170.083,133.809,169.22,133.133,169.679L133.133,169.679z"/>
		</g>
	</g>
	<g>
		<g>
			<path fill="#FFFFFF" d="M117.828,168.908c-11.458-4.577-21.046-13.208-32.222-18.477c-8.28-3.904-17.184-5.111-20.219,5.147
				c-2.338,7.901-1.933,16.562-1.529,24.692c0.538,10.847,1.242,21.572,1.269,32.442c0.027,10.631,0.242,21.255,0.71,31.875
				c0.171,3.875,0.435,7.731,0.308,11.612c-0.074,2.266-0.399,4.504-1.003,6.688c-0.294,1.064-2.89,6.499-3.417,3.105
				c-0.107-0.688-1.116,0.004-1.032,0.543c0.014,0.519,0.028,1.037,0.042,1.556c-0.031,0.165,0.066,0.341,0.223,0.396
				c3.25,1.17,5.371-5.767,5.721-7.863c1.058-6.352,0.413-12.917,0.109-19.312c-0.578-12.182-0.624-24.375-0.628-36.567
				c-0.002-8.902-0.909-17.751-1.35-26.636c-0.258-5.197-0.234-10.396,0.279-15.575c0.395-3.984,1.006-9.417,4.053-12.385
				c4.072-3.965,11.645-0.554,15.867,1.353c11.289,5.097,20.73,13.887,32.222,18.477
				C117.75,170.188,118.422,169.146,117.828,168.908L117.828,168.908z"/>
		</g>
	</g>
	<g>
		<g>
			<path fill="#FFFFFF" d="M76.513,207.685c0.922,5.546,2.685,10.817,4.192,16.216c1.683,6.025,1.715,11.869,0.605,17.995
				c-2.041,11.265-4.147,24.185-16.892,27.63c-0.54,0.146-0.837,1.275-0.094,1.074c11.187-3.024,14.784-12.809,16.944-23.232
				c1.273-6.142,2.4-12.191,1.643-18.469c-0.893-7.408-4.142-14.385-5.367-21.757C77.431,206.454,76.424,207.146,76.513,207.685
				L76.513,207.685z"/>
		</g>
	</g>
	<g>
		<g>
			<path fill="#FFFFFF" d="M80.709,200.181c-0.863-9.001,4.136-17.016,5.067-25.813c0.081-0.764-0.983-0.275-1.042,0.279
				c-0.945,8.927-5.935,16.93-5.058,26.077C79.743,201.407,80.761,200.72,80.709,200.181L80.709,200.181z"/>
		</g>
	</g>
	<g>
		<g>
			<path fill="#FFFFFF" d="M62.875,141.121c-6.948-4.6-9.86-12.967-17.188-17.253c-5.919-3.462-12.846-4.472-19.396-2.453
				c-12.071,3.72-18.331,17.857-17.787,29.594c0.587,12.681,8.241,25.559,18.825,32.422c10.361,6.72,21.713,3.779,29.785-4.846
				c0.532-0.568-0.146-1.122-0.67-0.563c-19.648,20.994-43.689-4.067-46.696-25.32c-1.929-13.63,6.494-29.432,21.025-31.196
				c6.724-0.816,13.938,2.309,18.796,6.773c4.651,4.275,7.125,10.237,12.503,13.798C62.568,142.407,63.356,141.439,62.875,141.121
				L62.875,141.121z"/>
		</g>
	</g>
	<g>
		<g>
			<path fill="#FFFFFF" d="M59.079,170.864c-4.875-4.038-10.594-6.865-16.557-8.917c-0.53-0.183-1.197,0.866-0.597,1.072
				c5.892,2.028,11.531,4.812,16.35,8.802C58.729,172.198,59.532,171.24,59.079,170.864L59.079,170.864z"/>
		</g>
	</g>
	<g>
		<g>
			<path fill="#FFFFFF" d="M52.396,167.009c-5.147,1.265-15.953,11.016-18.091,1.253c-1.374-6.271,3.989-15.047,8.769-18.669
				c0.552-0.418,0.223-1.294-0.433-0.797c-5.604,4.247-10.196,12.889-9.368,20.009c1.265,10.869,14.733,0.334,19.03-0.722
				C52.847,167.949,53.145,166.824,52.396,167.009L52.396,167.009z"/>
		</g>
	</g>
	<g>
		<g>
			<path fill="#FFFFFF" d="M36.297,171.497c-5.505-3.313-6.894-9.816-10.758-14.555c-0.356-0.438-1.18,0.496-0.804,0.957
				c3.88,4.759,5.221,11.223,10.758,14.555C36.004,172.762,36.785,171.791,36.297,171.497L36.297,171.497z"/>
		</g>
	</g>
	<g>
		<g>
			<path fill="#FFFFFF" d="M39.739,136c-11.851,3.82-12.756,17.407-21.146,24.82c-0.511,0.451-0.187,1.345,0.433,0.797
				c8.152-7.202,9.191-20.858,20.62-24.542C40.172,136.905,40.468,135.765,39.739,136L39.739,136z"/>
		</g>
	</g>
	<g>
		<g>
			<path fill="#FFFFFF" d="M25.887,158.325c0.617,4.897,2.455,12.299-0.547,16.671c-0.468,0.682,0.48,0.841,0.86,0.287
				c3.197-4.655,1.368-12.344,0.719-17.501C26.833,157.097,25.819,157.786,25.887,158.325L25.887,158.325z"/>
		</g>
	</g>
	<g>
		<g>
			<path fill="#FFFFFF" d="M42.271,137.265c-1.944,0.418-5.39,1.184-5.705,3.646c-0.235,1.84,2.166,3.028,3.538,3.568
				c2.03,0.799,4.523,1.116,6.609,0.354c2.329-0.852,3.229-3.058,2.988-5.403c-0.07-0.684-1.087,0.004-1.032,0.543
				c0.478,4.654-4.593,4.642-7.805,3.494c-1.154-0.412-2.94-1.219-3.24-2.565c-0.374-1.679,3.595-2.355,4.553-2.562
				C42.728,138.222,43.026,137.103,42.271,137.265L42.271,137.265z"/>
		</g>
	</g>
	<g>
		<g>
			<path fill="#FFFFFF" d="M64.55,151.17c-6.428-0.197-7.434-7.404-11.167-11.315c-0.398-0.417-1.214,0.527-0.804,0.958
				c3.95,4.137,4.782,11.257,11.615,11.468C64.742,152.298,65.25,151.191,64.55,151.17L64.55,151.17z"/>
		</g>
	</g>
	<g>
		<g>
			<path fill="#FFFFFF" d="M52.489,214.373c-4.622,17.139-8.06,34.609-11.419,52.032c0.346-0.137,0.691-0.274,1.037-0.411
				c-1.136-15.181,1.781-30.264,1.903-45.432c0.107-13.298-1.207-26.571-1.266-39.867c-0.003-0.773-1.042-0.286-1.042,0.279
				c0,1.055,0,2.109,0,3.164c0,0.773,1.042,0.286,1.042-0.279c0-1.055,0-2.109,0-3.164c-0.347,0.093-0.695,0.187-1.042,0.279
				c0.062,13.907,1.363,27.782,1.251,41.692c-0.118,14.666-2.978,29.178-1.879,43.87c0.054,0.718,0.966-0.043,1.037-0.411
				c3.342-17.328,6.765-34.704,11.362-51.751C53.687,213.583,52.649,213.78,52.489,214.373L52.489,214.373z"/>
		</g>
	</g>
	<g>
		<g>
			<path fill="#FFFFFF" d="M297.548,258.769c-5.843-1.609-10.635-4.57-15.365-8.286c-3.771-2.962-7.59-6.62-11.988-8.599
				c-2.494-1.123-5.374,0.698-7.704,1.399c-6.083,1.831-11.461,0.911-17.587,0.278c-0.546-0.056-1.058,1.038-0.355,1.111
				c4.321,0.446,8.829,1.539,13.173,0.727c4.525-0.848,9.45-3.991,13.75-1.468c8.949,5.254,15.121,13.057,25.481,15.909
				C297.492,259.99,298.152,258.935,297.548,258.769L297.548,258.769z"/>
		</g>
	</g>
	<g>
		<g>
			<path fill="#FFFFFF" d="M286.037,260.647c-7.408,0.401-13.981-1.703-20.764-4.41c-0.519-0.207-1.19,0.835-0.596,1.072
				c6.874,2.744,13.52,4.854,21.004,4.449C286.224,261.729,286.727,260.61,286.037,260.647L286.037,260.647z"/>
		</g>
	</g>
	<g>
		<g>
			<path fill="#FFFFFF" d="M248.754,253.455c0.211,0.211,0.422,0.422,0.633,0.633c0.41,0.41,1.224-0.537,0.803-0.957
				c-0.211-0.211-0.422-0.422-0.633-0.633C249.146,252.088,248.333,253.035,248.754,253.455L248.754,253.455z"/>
		</g>
	</g>
	<g>
		<g>
			<path fill="#FFFFFF" d="M286.947,254.165c4.364,0.002,11.952-0.463,13.584,4.778c0.23-0.275,0.462-0.551,0.693-0.827
				c-1.266,0-2.531,0-3.797,0c-0.547,0-1.054,1.111-0.355,1.111c1.266,0,2.531,0,3.797,0c0.35,0,0.81-0.455,0.693-0.827
				c-1.771-5.692-9.463-5.344-14.26-5.347C286.756,253.054,286.249,254.164,286.947,254.165L286.947,254.165z"/>
		</g>
	</g>
	<g>
		<g>
			<path fill="#FFFFFF" d="M265.273,258.136c-2.588-1.205-6.106-0.132-8.723,0.463c-4.179,0.95-8.238,2.356-12.411,3.333
				c-0.547,0.128-0.846,1.25-0.094,1.074c3.483-0.814,6.9-1.899,10.356-2.82c2.971-0.791,7.301-2.361,10.275-0.978
				C265.181,259.442,265.857,258.407,265.273,258.136L265.273,258.136z"/>
		</g>
	</g>
	<g>
		<g>
			<path fill="#FFFFFF" d="M130.771,169.981c14.28-5.525,18.82-21.636,14.499-35.429c-4.532-14.467-21-22.906-35.316-17.246
				c-11.548,4.565-16.048,18.181-14.755,29.636c0.724,6.415,3.597,12.447,8.013,17.125c4.114,4.357,13.325,10.021,19.467,7.127
				c0.555-0.262,0.569-1.318-0.173-0.969c-6.144,2.895-15.136-3.563-19.097-7.758c-3.916-4.147-6.135-9.663-7.06-15.221
				c-1.825-10.968,2.516-23.503,12.895-28.588c12.397-6.074,27.674,1.219,33.518,12.802c6.681,13.243,2.769,31.771-11.896,37.446
				C130.357,169.104,130.064,170.255,130.771,169.981L130.771,169.981z"/>
		</g>
	</g>
	<g>
		<g>
			<path fill="#FFFFFF" d="M128.622,116.568c3.166-4.531,6.953-8.531,9.587-13.426c0.137-0.256,0.137-0.698-0.252-0.699
				c-10.34-0.037-20.668-0.599-31.008-0.633c-0.417-0.001-0.848,0.543-0.654,0.942c1.291,2.653,2.445,5.371,3.639,8.068
				c0.644,1.455,1.379,4.349,2.764,5.313c0.488,0.339,1.28-0.626,0.804-0.958c-1.287-0.896-2.011-3.778-2.615-5.128
				c-1.205-2.693-2.348-5.415-3.639-8.068c-0.218,0.314-0.436,0.628-0.654,0.942c7.955,0.027,15.901,0.352,23.853,0.544
				c1.789,0.043,3.579,0.064,5.368,0.082c2.339,0.023-1.907,4.727-1.702,4.441c-1.97,2.738-4.227,5.251-6.16,8.018
				C127.517,116.629,128.175,117.208,128.622,116.568L128.622,116.568z"/>
		</g>
	</g>
	<g>
		<g>
			<path fill="#FFFFFF" d="M125.5,100.01c0,0.316,0,0.633,0,0.949c0,0.773,1.042,0.287,1.042-0.279c0-0.316,0-0.633,0-0.949
				C126.542,98.958,125.5,99.444,125.5,100.01L125.5,100.01z"/>
		</g>
	</g>
	<g>
		<g>
			<path fill="#FFFFFF" d="M125.844,100.425c0.547,0,1.053-1.11,0.355-1.11C125.652,99.315,125.146,100.425,125.844,100.425
				L125.844,100.425z"/>
		</g>
	</g>
	<g>
		<g>
			<path fill="#FFFFFF" d="M130.153,95.405c12.13-15.652,16.285-38.103,15.369-57.504c-0.028-0.597-0.804-0.111-0.946,0.127
				c-10.371,17.466-12.464,37.922-18.097,57.094c0.323-0.129,0.646-0.257,0.969-0.386c-3.027-5.198-5.443-10.819-9.567-15.279
				c-0.328-0.354-0.924,0.293-0.923,0.619c0.014,4.964,0.803,8.539,3.841,12.586c0.258-0.308,0.517-0.615,0.775-0.923
				c-6.235-2.971-12.422-4.45-19.235-2.849c-0.322,0.076-0.744,0.585-0.523,0.924c3.151,4.848,7.183,6.494,12.769,4.897
				c0.536-0.153,0.833-1.286,0.094-1.075c-2.413,0.69-4.572,0.923-6.985,0.12c-0.417-0.138-5.995-3.662-3.636-4.216
				c5.738-1.349,11.81,0.837,16.921,3.272c0.404,0.192,1.048-0.559,0.775-0.923c-2.901-3.864-3.739-7.309-3.752-12.092
				c-0.308,0.206-0.615,0.412-0.923,0.619c4.066,4.397,6.434,9.972,9.417,15.094c0.266,0.456,0.873-0.059,0.969-0.386
				c2.828-9.624,4.783-19.467,7.238-29.187c1.224-4.847,2.668-9.628,4.375-14.327c0.924-2.544,2.021-5.021,3.179-7.466
				c0.483-0.994,0.989-1.976,1.518-2.946c1.498-2.827,0.807-0.507,0.828,0.808c0.282,17.885-3.982,38.468-15.117,52.836
				C129.012,95.45,129.677,96.02,130.153,95.405L130.153,95.405z"/>
		</g>
	</g>
	<g>
		<g>
			<path fill="#FFFFFF" d="M119.854,77.652c-10.18-13.974-7.598-33.793-7.548-50.06c0.002-0.773-1.041-0.286-1.042,0.279
				c-0.05,16.394-2.629,36.46,7.637,50.554C119.28,78.947,120.179,78.1,119.854,77.652L119.854,77.652z"/>
		</g>
	</g>
	<g>
		<g>
			<path fill="#FFFFFF" d="M108.602,27.451c-2.066,2.915-5.378,4.524-8.294,6.44c-0.495,0.325-0.509,1.417,0.173,0.969
				c3.092-2.031,6.6-3.754,8.792-6.847C109.712,27.392,109.053,26.814,108.602,27.451L108.602,27.451z"/>
		</g>
	</g>
	<g>
		<g>
			<path fill="#FFFFFF" d="M109.114,24.33c-3.754-0.115-7.119-1.699-10.216-3.721c-0.499-0.325-1.286,0.643-0.804,0.958
				c3.233,2.11,6.748,3.753,10.665,3.873C109.306,25.457,109.815,24.351,109.114,24.33L109.114,24.33z"/>
		</g>
	</g>
	<g>
		<g>
			<path fill="#FFFFFF" d="M111.351,23.664c-0.867-3.416-1.834-6.76-1.894-10.31c-0.013-0.773-1.051-0.287-1.042,0.279
				c0.061,3.646,1.013,7.063,1.903,10.573C110.492,24.89,111.486,24.196,111.351,23.664L111.351,23.664z"/>
		</g>
	</g>
	<g>
		<g>
			<path fill="#FFFFFF" d="M112.214,25.978c2.146-4.366,3.948-8.917,5.756-13.432c0.304-0.759-0.762-0.557-0.984-0.002
				c-1.77,4.418-3.531,8.873-5.632,13.146C110.992,26.427,111.908,26.601,112.214,25.978L112.214,25.978z"/>
		</g>
	</g>
	<g>
		<g>
			<path fill="#FFFFFF" d="M113.504,25.44c2.327,0,4.654,0,6.98,0c0.547,0,1.053-1.11,0.355-1.11c-0.112,0-0.224,0-0.336,0
				c-0.547,0-1.053,1.11-0.355,1.11c0.112,0,0.224,0,0.336,0c0.547,0,1.053-1.11,0.355-1.11c-2.327,0-4.654,0-6.98,0
				C113.313,24.33,112.806,25.44,113.504,25.44L113.504,25.44z"/>
		</g>
	</g>
	<g>
		<g>
			<path fill="#FFFFFF" d="M113.205,27.17c1.394,2.115,2.498,4.421,3.974,6.482c0.308,0.429,0.782,1.149,1.396,0.808
				c0.786-0.436,0.502-1.559,0.369-2.254c-0.131-0.687-1.135,0.005-1.032,0.543c0.062,0.325,0.134,0.658,0.145,0.99
				c0.014,0.422,0.568-0.303,0.579-0.295c-0.083-0.055-0.152-0.136-0.22-0.208c-0.52-0.548-0.902-1.269-1.294-1.908
				c-1.002-1.635-1.908-3.33-2.964-4.931C113.805,25.86,112.898,26.705,113.205,27.17L113.205,27.17z"/>
		</g>
	</g>
	<g>
		<g>
			<path fill="#FFFFFF" d="M124.642,138.642c-3.33,5.549-8.603,8.861-14.354,4.412c-0.469-0.362-1.267,0.599-0.804,0.957
				c6.393,4.945,12.373,0.995,16.019-5.081C125.928,138.221,124.994,138.057,124.642,138.642L124.642,138.642z"/>
		</g>
	</g>
	<g>
		<g>
			<path fill="#FFFFFF" d="M126.199,136.333c-5.696,0.134-10.92,2.015-16.267,3.814c-0.523,0.176-0.818,1.319-0.094,1.075
				c5.261-1.771,10.389-3.647,16.005-3.779C126.389,137.43,126.894,136.316,126.199,136.333L126.199,136.333z"/>
		</g>
	</g>
	<g>
		<g>
			<path fill="#FFFFFF" d="M107.44,140.206c-2.666-2.666-5.38-5.328-7.518-8.451c-0.363-0.531-1.267,0.315-0.953,0.773
				c2.183,3.189,4.946,5.913,7.667,8.635C107.046,141.574,107.86,140.626,107.44,140.206L107.44,140.206z"/>
		</g>
	</g>
	<g>
		<g>
			<path fill="#FFFFFF" d="M107.085,142.995c-2.047,0.324-4.22,0.548-6.188-0.25c-2.351-0.954-2.792-3.773-2.83-5.997
				c-0.013-0.773-1.051-0.287-1.042,0.279c0.04,2.416,0.439,4.982,2.588,6.426c2.092,1.403,5.05,0.985,7.377,0.616
				C107.551,143.98,107.849,142.874,107.085,142.995L107.085,142.995z"/>
		</g>
	</g>
	<g>
		<g>
			<path fill="#FFFFFF" d="M114.203,132.002c0.045-0.651,0.669-1.329,1.016-1.851c0.385-0.581,0.833-1.229,0.883-1.945
				c0.054-0.769-1.003-0.28-1.042,0.279c-0.045,0.651-0.669,1.329-1.016,1.851c-0.385,0.581-0.833,1.229-0.883,1.945
				C113.107,133.05,114.164,132.562,114.203,132.002L114.203,132.002z"/>
		</g>
	</g>
	<g>
		<g>
			<path fill="#FFFFFF" d="M109.458,131.053c0-1.582,0-3.164,0-4.745c0-0.773-1.042-0.287-1.042,0.279c0,1.582,0,3.164,0,4.745
				C108.416,132.105,109.458,131.619,109.458,131.053L109.458,131.053z"/>
		</g>
	</g>
	<g>
		<g>
			<path fill="#FFFFFF" d="M117.045,154.651c-1.118-5.096-4.273-8.883-8.656-11.598c-0.506-0.313-1.29,0.656-0.804,0.957
				c4.236,2.625,7.344,6.24,8.428,11.184C116.164,155.88,117.163,155.187,117.045,154.651L117.045,154.651z"/>
		</g>
	</g>
	<g>
		<g>
			<path fill="#FFFFFF" d="M116.828,156.284c-4.909-1.108-8.364-4.814-10.262-9.342c-0.239-0.571-1.169,0.258-0.953,0.773
				c1.952,4.655,5.576,8.503,10.619,9.641C116.777,157.479,117.431,156.42,116.828,156.284L116.828,156.284z"/>
		</g>
	</g>
	<g>
		<g>
			<path fill="#FFFFFF" d="M108.72,148.829c-2.859,2.703-6.318,3.416-9.926,1.761c-0.505-0.232-1.182,0.805-0.597,1.072
				c3.938,1.807,7.855,0.895,10.955-2.036C109.644,149.162,109.321,148.261,108.72,148.829L108.72,148.829z"/>
		</g>
	</g>
	<g>
		<g>
			<path fill="#FFFFFF" d="M103.974,145.032c-2.274,2.211-4.964,3.942-7.593,5.695c-0.581,0.388-0.246,1.249,0.433,0.797
				c2.628-1.753,5.318-3.484,7.593-5.695C104.889,145.36,104.567,144.456,103.974,145.032L103.974,145.032z"/>
		</g>
	</g>
	<g>
		<g>
			<path fill="#FFFFFF" d="M39.816,267.317c-4.995-0.757-11.613-2.014-16.401,0.071c-0.565,0.246-0.578,1.296,0.173,0.969
				c4.519-1.968,11.141-0.646,15.873,0.071C40.002,268.511,40.516,267.424,39.816,267.317L39.816,267.317z"/>
		</g>
	</g>
	<g>
		<g>
			<path fill="#FFFFFF" d="M38.039,262.591c-5.455-1.534-9.153,2.576-14.359,2.828c-0.543,0.026-1.046,1.145-0.355,1.111
				c5.04-0.244,8.866-4.344,14.118-2.867C37.982,263.815,38.643,262.761,38.039,262.591L38.039,262.591z"/>
		</g>
	</g>
</g>
</svg>
