<?xml version="1.0" encoding="utf-8"?>
<!-- Generator: Adobe Illustrator 15.0.1, SVG Export Plug-In . SVG Version: 6.00 Build 0)  -->
<!DOCTYPE svg PUBLIC "-//W3C//DTD SVG 1.1//EN" "http://www.w3.org/Graphics/SVG/1.1/DTD/svg11.dtd">
<svg version="1.1" id="Layer_1" xmlns="http://www.w3.org/2000/svg" xmlns:xlink="http://www.w3.org/1999/xlink" x="0px" y="0px"
	 width="176.444px" height="177.096px" viewBox="0 0 176.444 177.096" enable-background="new 0 0 176.444 177.096"
	 xml:space="preserve">
<g opacity="0.72">
	<g>
		<path fill="#FF0000" d="M56.683,36.788H31.966c-0.331,0-0.6-0.269-0.6-0.6s0.269-0.6,0.6-0.6h24.717c0.331,0,0.6,0.269,0.6,0.6
			S57.014,36.788,56.683,36.788z"/>
		<path fill="#FF0000" d="M44.323,44.206c-0.331,0-0.6-0.269-0.6-0.6v-7.418c0-0.332,0.269-0.6,0.6-0.6s0.6,0.269,0.6,0.6v7.418
			C44.923,43.938,44.654,44.206,44.323,44.206z"/>
		<path fill="#FF0000" d="M62.511,44.206c-0.331,0-0.6-0.269-0.6-0.6v-7.418c0-0.332,0.269-0.6,0.6-0.6s0.6,0.269,0.6,0.6v7.418
			C63.11,43.938,62.842,44.206,62.511,44.206z"/>
		<path fill="#FF0000" d="M114.353,44.206c-0.331,0-0.6-0.269-0.6-0.6v-7.418c0-0.332,0.269-0.6,0.6-0.6s0.6,0.269,0.6,0.6v7.418
			C114.952,43.938,114.684,44.206,114.353,44.206z"/>
		<path fill="#FF0000" d="M114.353,40.498H62.511c-0.331,0-0.6-0.269-0.6-0.6s0.269-0.6,0.6-0.6h51.842c0.331,0,0.6,0.269,0.6,0.6
			S114.684,40.498,114.353,40.498z"/>
		<path fill="#FF0000" d="M139.079,46.216c-5.873,0-14.22-0.314-17.133-3.202c-0.719-0.712-1.083-1.549-1.083-2.485
			c0-0.922,0.359-1.745,1.069-2.448c3.359-3.322,14.324-3.2,19.602-3.141c0.576,0.006,1.079,0.012,1.489,0.012
			c0.331,0,0.6,0.269,0.6,0.6s-0.269,0.6-0.6,0.6c-0.414,0-0.922-0.006-1.503-0.012c-4.712-0.056-15.741-0.176-18.744,2.794
			c-0.479,0.475-0.714,0.997-0.714,1.594c0,0.613,0.238,1.147,0.729,1.632c3.005,2.979,13.656,2.884,18.773,2.84
			c0.552-0.005,1.043-0.009,1.459-0.009c0.331,0,0.6,0.269,0.6,0.6s-0.269,0.6-0.6,0.6c-0.413,0-0.9,0.004-1.448,0.009
			C140.82,46.208,139.979,46.216,139.079,46.216z"/>
		<path fill="#FF0000" d="M142.975,40.824h-21.466c-0.331,0-0.6-0.269-0.6-0.6s0.269-0.6,0.6-0.6h21.466c0.331,0,0.6,0.269,0.6,0.6
			S143.306,40.824,142.975,40.824z"/>
	</g>
	<g>
		<path fill="#FF0000" d="M50.685,129.82c-0.842,0-1.611,0.223-2.303,0.666c-0.536,0.531-1.19,1.418-1.958,2.656l-4.492,0.268
			c-1.307-2.748-2.919-3.9-4.838-3.457c-1.842,0.355-2.764,1.639-2.764,3.855v1.197c0.153,0.885,0.46,1.682,0.922,2.393
			c1.534,2.48,4.453,3.721,8.754,3.721c3.301,0,5.912-0.842,7.832-2.525c1.612-1.328,2.421-2.967,2.421-4.92
			c0-0.619-0.196-1.283-0.579-1.992C53.066,130.441,52.067,129.82,50.685,129.82z"/>
		<path fill="#FF0000" d="M59.211,93.799c-0.309,1.95-0.461,6.027-0.461,12.229c0,0.266,0,3.677,0,10.234
			c0.461,6.381,1.764,9.57,3.915,9.57c2.148,0,3.226-1.729,3.226-5.184c0-2.871-0.575-5.738-0.575-8.641
			c1.304,0.176,2.879,0.266,4.721,0.266c2.383,0,5.591,0.072,7.259-1.861c0.382-0.441,0.615-0.975,0.689-1.594
			c0.077-0.176,0.116-0.311,0.116-0.398h-0.116c0.077-0.355,0.116-0.621,0.116-0.799c0-2.038-0.615-3.277-1.844-3.721
			c0.23-0.798,0.385-1.507,0.463-2.127c1.072-0.442,1.802-1.416,2.187-2.924c0.153-0.709,0.229-2.039,0.229-3.987
			c0-3.28-0.574-5.362-1.727-6.249c-0.079-0.621-0.152-1.373-0.229-2.259c0.765-0.266,1.305-0.886,1.609-1.862
			c0.231-0.621,0.346-1.683,0.346-3.19c0-2.747-1.074-4.918-3.225-6.514c-1.777-1.262-3.89-1.972-6.335-2.126
			c0-0.583,0-1.203,0-1.862V57.728h-1.266v14.934c-2.687,0.144-4.956,0.853-6.798,2.126c-2.229,1.596-3.341,3.722-3.341,6.382
			c0,1.24,0.077,2.125,0.231,2.656c0.537,1.42,1.689,2.128,3.455,2.128c1.922,0,2.996-0.886,3.224-2.659
			c0.311-1.683,1.27-2.524,2.882-2.524c2.994,0,4.683,0.974,5.068,2.923c0.231,1.063,0.423,1.728,0.575,1.994
			c0.308,0.533,0.999,0.843,2.073,0.931v1.461h-0.113c-2.382,0.267-3.572,2.837-3.572,7.711v3.189
			c0.385,1.773,1.381,2.748,2.996,2.925c-0.156,0.71-0.271,1.329-0.347,1.86c0,0-0.114,0-0.116,0
			c-3.131,0.369-6.043,0.664-9.193,0.666c-0.279,0,1.971-15.343-3.145-15.516C59.751,88.835,59.495,92.002,59.211,93.799z"/>
		<path fill="#FF0000" d="M50.916,74.523c-1.921-1.152-4.3-1.461-7.142-0.931c-0.075,0.016-0.155,0.016-0.23,0V57.728h-1.265v16.13
			c-2.205,0.675-4.124,1.739-5.762,3.191c-2.226,2.038-3.341,4.297-3.341,6.777c0,0.799,0.192,1.508,0.577,2.128
			c0.538,1.241,1.498,1.861,2.879,1.861c0.997,0,2.266-1.063,3.803-3.19c1.535-2.215,3.302-3.323,5.294-3.323
			c0.771,0,1.577,0.666,2.425,1.994c0.841,1.417,1.764,2.127,2.762,2.127c1.304,0,2.225-0.621,2.764-1.861
			c0.383-0.709,0.579-1.506,0.579-2.391C54.259,78.067,53.141,75.853,50.916,74.523z"/>
		<path fill="#FF0000" d="M37.669,125.832c2.82,0,3.226-2.508,3.226-4.652c0-2.027,0.763-4.119,3.111-4.119
			c2.148,0,3.226,1.107,3.226,3.322c0,2.65-0.464,5.449,3.223,5.449c1.689,0,2.729-0.887,3.111-2.658
			c0.079-0.266,0.114-1.373,0.114-3.322s-0.846-3.768-2.534-5.451c-2.773-2.766-5.441-2.928-9.214-3.057
			c-0.462-0.178-0.77-0.398-0.923-0.666c-0.231-0.266-0.343-0.75-0.343-1.475c0-0.576-0.018-1.148-0.002-1.722
			c2.207-0.354,4.733,0.345,6.98-0.18c2.347-0.549,4.249-1.802,5.229-4.066c0.537-1.24,0.806-3.456,0.806-6.646
			c0-2.836-0.114-4.653-0.344-5.45c-0.77-2.216-2.497-2.57-5.182-1.064c-0.616,0.269-0.923,0.975-0.923,2.127
			c-0.078,0.708-0.078,1.819,0,3.323c0,2.926-1.229,4.387-3.688,4.387c-0.919-0.087-1.766-0.133-2.535-0.133
			c-0.075-2.393-0.114-4.341-0.114-5.848c-0.077-2.66-0.998-4.166-2.764-4.52c-1.843-0.354-3.111,0.932-3.801,3.854
			c-0.41,1.737-0.137,3.979-0.247,5.77c-0.193,3.129-0.163,6.144,0.247,9.25c0.307,2.926,0.46,5.098,0.46,6.514
			c0,0.799-0.346,2.926-1.036,6.383C33.524,124.281,34.827,125.832,37.669,125.832z"/>
		<path fill="#FF0000" d="M87.315,130.617c-2.455,0.18-3.687,1.951-3.687,5.32c0,0.795,0.155,1.506,0.46,2.125
			c0.614,1.24,1.69,1.861,3.227,1.861c2.383,0,3.572-1.553,3.572-4.652C90.888,131.904,89.698,130.354,87.315,130.617z"/>
		<path fill="#FF0000" d="M139.611,81.036c-0.686-3.784-3.68-6.399-8.986-7.843c0-0.457,0-0.944,0-1.461V57.728h-1.265v15.2
			c-1.905-0.34-3.596-0.252-5.07,0.266c-2.989,1.05-4.369,5.59-2.995,8.374c0.615,1.33,1.767,1.995,3.456,1.995
			c1.845,0,2.995-0.752,3.455-2.26c0.153,0.089,0.349,0.178,0.58,0.266c6.427,2.438,7.683,10.529,8.693,16.333
			c0.62,3.561,0.98,7.169,0.98,10.785c0,1.861-0.153,3.809-0.462,5.848c-0.076,3.191-0.461,6.338-1.151,9.438
			c-1.229,5.494-3.303,8.508-6.222,9.039c-0.997,0.533-2.07,0.885-3.225,1.064c-0.307-1.861-1.382-2.791-3.224-2.793
			c-3.487,0-4.577,5.52-2.882,7.977c0.846,1.33,2.727,1.994,5.644,1.994c4.686,0,8.375-1.197,11.06-3.588
			c0.385-0.355,0.732-0.709,1.038-1.064c3.992-3.367,5.988-12.717,5.988-28.047c0-5.051,0-8.064,0-9.04
			c-0.229-3.456-0.766-6.646-1.614-9.572C142.414,86.575,141.146,83.607,139.611,81.036z"/>
		<path fill="#FF0000" d="M111.734,73.459c-3.694,0-4.723,3.958-4.723,7.045c0,1.241,0.078,2.126,0.233,2.658
			c0.537,1.507,1.611,2.26,3.223,2.26c1.152,0,2.189-0.931,3.11-2.792c0.155-0.176,0.271-0.354,0.345-0.53
			c1.229-0.534,1.843-1.907,1.843-4.121C115.766,74.967,114.424,73.459,111.734,73.459z"/>
		<path fill="#FF0000" d="M124.521,127.029c0.922,0,1.727-0.311,2.417-0.932c0.769-0.797,1.115-1.814,1.038-3.057
			c0-7.758-0.029-15.516-0.013-23.273c0.003-1.605-0.354-3.238-0.176-4.842c0.142-1.265,0.767-2.37,0.767-3.655
			c0-2.214-0.769-3.544-2.306-3.986c-4.964-1.425-4.86,6.021-4.836,8.721c0.051,5.577-0.006,11.157-0.004,16.734
			c0.001,2.49,0.386,5.297,0.004,7.744c-0.264,1.691-1.002,2.76-0.118,4.551C121.91,126.363,122.985,127.029,124.521,127.029z"/>
		<path fill="#FF0000" d="M115.304,96.722c0-5.14-1.112-7.665-3.338-7.578c-2.227,0-3.341,2.48-3.342,7.44
			c-0.001,3.99,0,7.979,0,11.968v8.639c0.385,5.762,1.502,8.641,3.342,8.641c1.844,0,2.957-2.658,3.338-7.975
			c0-5.584,0-8.643,0-9.172C115.304,104.698,115.304,100.709,115.304,96.722z"/>
		<path fill="#FF0000" d="M111.272,130.354c-0.919,0-1.764,0.398-2.532,1.195c-0.077,0.09-0.5,0.621-1.268,1.594l-3.339,0.268
			c-1-2.039-1.959-3.234-2.881-3.59c-0.077-1.24-0.231-2.658-0.46-4.254c1.229-0.887,1.995-3.455,2.303-7.709
			c0-5.584,0-8.643,0-9.172c0-3.99,0-7.975,0-11.964c0-4.431-0.845-6.912-2.534-7.444c-0.076-0.442-0.115-0.93-0.115-1.462
			c-0.076-1.506-0.154-2.613-0.23-3.324c1.152-0.708,1.728-2.215,1.728-4.52c0-2.393-0.922-4.253-2.764-5.583
			c-1.614-1.24-3.646-1.815-6.104-1.728c-2.381,0.088-4.415,0.797-6.104,2.126c-1.842,1.418-2.764,3.279-2.764,5.583
			c0,0.09,0.076,0.843,0.228,2.26c0.538,1.418,1.576,2.127,3.112,2.127c0.318,0,0.586-0.045,0.807-0.133
			c-0.418,1.27-0.879,2.776-1.383,4.519c-2.229,0-3.342,2.482-3.342,7.445c0,3.613,0.027,6.684-1.019,10.136
			c-1.167,3.853-2.411,7.681-3.589,11.531c-1.369,4.473-2.329,7.707-2.879,9.703c-0.239,0-0.508,0-0.809,0
			c-1.84,0-2.916,1.107-3.225,3.322c-1.38,1.242-2.343,1.861-2.879,1.861c-0.768,0-1.88-0.664-3.34-1.992
			c-1.458-1.33-2.536-1.994-3.226-1.994c-1.459,0-2.458,0.621-2.993,1.861c-0.308,0.709-0.461,1.506-0.461,2.393
			c0,1.063,0.69,2.393,2.07,3.988c2.073,2.48,4.839,3.721,8.295,3.721c4.365,0,9.102-3.957,9.102-8.375
			c0-1.637-0.308-2.875-0.922-3.721c1.19-4.168,3.15-11.211,5.873-21.137c0,0.25,0,0.473,0,0.666v8.639
			c0.386,5.762,1.536,8.641,3.455,8.641c1.846,0,2.919-2.658,3.228-7.975c0-5.584,0-8.643,0-9.172c0-3.988,0-7.976,0-11.964
			c0-3.714-0.578-6.063-1.729-7.045c0.667-2.626,1.243-5.064,1.729-7.312c0.629-1.063,1.856-1.594,3.684-1.594
			c0.464,0,1.115,0.664,1.96,1.993c0.767,1.242,1.61,1.906,2.532,1.994v4.785c-1.381,0.8-2.071,3.146-2.071,7.046
			c0,3.988,0,7.975,0,11.964v8.639c0.306,4.963,1.189,7.801,2.649,8.508v4.654c-1.075,0.797-1.612,2.17-1.612,4.119
			c0,1.418,0.306,2.615,0.918,3.59c1.23,2.037,3.651,3.057,7.26,3.057c3.147,0,5.528-0.797,7.142-2.393
			c1.305-1.328,1.96-2.789,1.96-4.387c0-0.621-0.194-1.285-0.578-1.992C113.616,131.018,112.657,130.354,111.272,130.354z"/>
	</g>
	<path fill="#FF0000" d="M142.976,56.58c0,0-5.767,0-14.656,0c-0.734,0.033-1.31,0.137-1.989,0.242
		c-5.972,0.386-11.972,0.386-18.096-0.242c-0.536,0-1.075,0-1.617,0c-31.968,0-73.44,0-73.44,0c-0.331,0-0.6-0.269-0.6-0.6
		s0.269-0.6,0.6-0.6c0,0,41.473,0,73.44,0c0.542,0,1.081,0,1.617,0c7.124,0.828,15.124,0.828,22.431,0c0.754,0,1.48,0,2.178,0
		c6.272,0,10.133,0,10.133,0c0.331,0,0.6,0.269,0.6,0.6S143.307,56.58,142.976,56.58z"/>
	<path fill="#FF0000" d="M142.976,51.453c0,0-5.767,0-14.656,0c-0.728-0.032-1.28-0.132-1.952-0.231
		c-6.009-2.014-12.009-0.014-18.133,0.231c-0.536,0-1.075,0-1.617,0c-31.968,0-73.44,0-73.44,0c-0.331,0-0.6-0.269-0.6-0.6
		s0.269-0.6,0.6-0.6c0,0,41.473,0,73.44,0c0.542,0,1.081,0,1.617,0c6.124-0.045,12.124-2.045,17.966-0.244
		c0.707,0.115,1.36,0.213,2.119,0.244c8.89,0,14.656,0,14.656,0c0.331,0,0.6,0.269,0.6,0.6S143.307,51.453,142.976,51.453z"/>
</g>
</svg>
