<?xml version="1.0" encoding="utf-8"?>
<!-- Generator: Adobe Illustrator 15.0.1, SVG Export Plug-In . SVG Version: 6.00 Build 0)  -->
<!DOCTYPE svg PUBLIC "-//W3C//DTD SVG 1.1//EN" "http://www.w3.org/Graphics/SVG/1.1/DTD/svg11.dtd">
<svg version="1.1" id="Layer_1" xmlns="http://www.w3.org/2000/svg" xmlns:xlink="http://www.w3.org/1999/xlink" x="0px" y="0px"
	 width="2033.333px" height="1827.888px" viewBox="0 0 2033.333 1827.888" enable-background="new 0 0 2033.333 1827.888"
	 xml:space="preserve">
<g>
	<g>
		<line fill="none" stroke="#FFFFFF" stroke-miterlimit="10" x1="-133.333" y1="58.445" x2="-127.4" y2="59.335"/>
		
			<line fill="none" stroke="#FFFFFF" stroke-miterlimit="10" stroke-dasharray="12.0125,3.0031" x1="-124.43" y1="59.781" x2="2264.805" y2="418.442"/>
		<line fill="none" stroke="#FFFFFF" stroke-miterlimit="10" x1="2266.289" y1="418.666" x2="2272.223" y2="419.556"/>
	</g>
</g>
<line fill="none" stroke="#FFFFFF" stroke-miterlimit="10" x1="-133.333" y1="114" x2="2294.444" y2="377.889"/>
<line fill="none" stroke="#FFFFFF" stroke-miterlimit="10" x1="-275" y1="1144.556" x2="2183.333" y2="794.556"/>
<line fill="none" stroke="#FFFFFF" stroke-miterlimit="10" x1="-172.222" y1="1094.556" x2="2183.333" y2="858.445"/>
<path fill="none" stroke="#FFFFFF" stroke-miterlimit="10" d="M-172.222,1191.778c0,0,156.694-6.362,389.914-15.832
	c21.202-0.86,43.036-1.747,65.443-2.657c22.406-2.127,45.385-4.021,68.875-2.796c23.491-9.567,47.493-6.875,71.947-2.921
	c24.455,2.227,49.36-3.338,74.658-3.031c25.297,3.924,50.986-5.322,77.007-3.127c26.021,6.127,52.372-4.572,78.995-3.207
	c26.623-1.081,53.517-2.173,80.621-3.273c677.614-27.514,1486.985-60.376,1486.985-60.376"/>
<path fill="none" stroke="#FFFFFF" stroke-miterlimit="10" d="M-80.556,264c0,0,91.499,76.402,234.714,195.988
	c14.322,11.958,29.16,24.349,44.477,37.138c15.316,11.236,31.109,19.954,47.34,39.53c16.231,10.447,32.9,27.124,49.966,41.722
	c17.066,26.144,34.531,28.833,52.353,43.715c570.315,476.216,1507.261,1258.573,1507.261,1258.573"/>
<path fill="none" stroke="#FFFFFF" stroke-miterlimit="10" d="M-133.333,1508.443c0,0,61.447,0.07,164.79,0.188
	c14.763,0.017,30.381-0.64,46.797,0.054c16.417,5.643,33.631-1.634,51.586,0.059c17.955,5.198,36.651,2.529,56.032,0.064
	c19.38-2.735,39.444,1.499,60.136,0.068c20.691,1.51,42.01-3.712,63.898,0.073c21.888-3.728,44.347,1.019,67.318,0.077
	c22.972-0.035,46.456,0.053,70.396,0.081c718.209,0.821,1846.826,2.113,1846.826,2.113"/>
<line opacity="0.51" fill="none" stroke="#FFFFFF" stroke-miterlimit="10" x1="238.889" y1="1563.999" x2="2208.333" y2="1366.777"/>
<line fill="none" stroke="#FFFFFF" stroke-miterlimit="10" x1="1223.611" y1="91.777" x2="1869.444" y2="-97.112"/>
<line fill="none" stroke="#FFFFFF" stroke-miterlimit="10" x1="238.889" y1="711.222" x2="63.889" y2="794.556"/>
<line fill="none" stroke="#FFFFFF" stroke-miterlimit="10" x1="50" y1="577.888" x2="102.778" y2="622.333"/>
<line fill="none" stroke="#FFFFFF" stroke-miterlimit="10" x1="208.333" y1="289" x2="252.778" y2="289"/>
<line fill="none" stroke="#FFFFFF" stroke-miterlimit="10" x1="197.222" y1="361.222" x2="238.889" y2="355.666"/>
<line fill="none" stroke="#FFFFFF" stroke-miterlimit="10" x1="311.111" y1="325.11" x2="327.778" y2="322.333"/>
<line fill="none" stroke="#FFFFFF" stroke-miterlimit="10" x1="218.056" y1="311.222" x2="218.056" y2="322.333"/>
<line fill="none" stroke="#FFFFFF" stroke-miterlimit="10" x1="102.778" y1="239" x2="102.778" y2="245.945"/>
<line fill="none" stroke="#FFFFFF" stroke-miterlimit="10" x1="102.778" y1="341.777" x2="116.667" y2="325.11"/>
<line fill="none" stroke="#FFFFFF" stroke-miterlimit="10" x1="163.889" y1="216.777" x2="172.222" y2="227.888"/>
<line fill="none" stroke="#FFFFFF" stroke-miterlimit="10" x1="430.556" y1="158.444" x2="440.821" y2="144.634"/>
<line fill="none" stroke="#FFFFFF" stroke-miterlimit="10" x1="522.222" y1="91.777" x2="522.222" y2="72.333"/>
<line fill="none" stroke="#FFFFFF" stroke-miterlimit="10" x1="380.556" y1="58.445" x2="377.778" y2="58.445"/>
<line fill="none" stroke="#FFFFFF" stroke-miterlimit="10" x1="1444.444" y1="91.777" x2="1463.889" y2="114"/>
<line fill="none" stroke="#FFFFFF" stroke-miterlimit="10" x1="1272.223" y1="58.445" x2="1290.096" y2="72.333"/>
<line fill="none" stroke="#FFFFFF" stroke-miterlimit="10" x1="1730.556" y1="144.634" x2="1730.556" y2="158.444"/>
<line fill="none" stroke="#FFFFFF" stroke-miterlimit="10" x1="1883.333" y1="191.777" x2="1913.889" y2="172.333"/>
<line opacity="0.5" fill="none" stroke="#FFFFFF" stroke-miterlimit="10" x1="1930.556" y1="245.945" x2="1947.223" y2="289"/>
<line fill="none" stroke="#FFFFFF" stroke-miterlimit="10" x1="1658.333" y1="419.556" x2="1898.611" y2="522.333"/>
<line fill="none" stroke="#FFFFFF" stroke-miterlimit="10" x1="1730.556" y1="725.11" x2="1883.333" y2="664"/>
<line fill="none" stroke="#FFFFFF" stroke-miterlimit="10" x1="1778.473" y1="664" x2="1883.333" y2="694.555"/>
<line fill="none" stroke="#FFFFFF" stroke-miterlimit="10" x1="733.333" y1="679.277" x2="1272.223" y2="522.333"/>
<line fill="none" stroke="#FFFFFF" stroke-miterlimit="10" x1="633.333" y1="522.333" x2="713.889" y2="558.444"/>
<line fill="none" stroke="#FFFFFF" stroke-miterlimit="10" x1="218.056" y1="1105.666" x2="505.556" y2="969.556"/>
<path opacity="0.5" fill="none" stroke="#FFFFFF" stroke-miterlimit="10" d="M-63.889,841.777c0,0,168.564,103.217,396.622,242.865
	c20.732,12.695,41.957,25.691,63.59,38.938c21.634,11.418,43.678,29.665,66.049,40.444c22.371,10.255,45.07,28.507,68.016,41.648
	c22.945,14.051,46.136,28.251,69.491,42.552c443.742,271.718,946.648,579.664,946.648,579.664"/>
<path opacity="0.5" fill="none" stroke="#FFFFFF" stroke-miterlimit="10" d="M1281.159,1733.443
	c0,0-535.666-613.28-947.717-1085.034c-17.168-19.656-34.123-39.067-50.814-58.177c-16.692-16.132-33.122-46.657-49.241-56.376
	c-16.12-26-31.929-36.555-47.381-54.246C0.583,267.32-133.333,114-133.333,114"/>
<path fill="none" stroke="#FFFFFF" stroke-miterlimit="10" d="M-8.333,1500.11c21.341-23.479,55.893-28.923,86.111-25"/>
<path fill="none" stroke="#FFFFFF" stroke-miterlimit="10" d="M44.444,1566.777c1.852-1.852,3.704-3.704,5.556-5.556"/>
<path fill="none" stroke="#FFFFFF" stroke-miterlimit="10" d="M52.778,1419.555c-0.998-3.047-0.274-5.165,2.778-5.556"/>
<path fill="none" stroke="#FFFFFF" stroke-miterlimit="10" d="M119.444,1308.443c3.101,7.348,4.05,16.415,2.778,25"/>
<path fill="none" stroke="#FFFFFF" stroke-miterlimit="10" d="M61.111,1366.777c1.852,1.852,3.704,3.703,5.555,5.556"/>
<path fill="none" stroke="#FFFFFF" stroke-miterlimit="10" d="M61.111,1316.777c-0.308-7.777,0.61-15.038,2.778-22.223"/>
<path fill="none" stroke="#FFFFFF" stroke-miterlimit="10" d="M97.222,1372.333c0,1.852,0,3.703,0,5.555"/>
<path fill="none" stroke="#FFFFFF" stroke-miterlimit="10" d="M138.889,1363.999c0.926,0,1.852,0,2.777,0"/>
<path fill="none" stroke="#FFFFFF" stroke-miterlimit="10" d="M108.333,1416.777c-29.986-4.654-59.161-9.87-88.889-16.667"/>
<path fill="none" stroke="#FFFFFF" stroke-miterlimit="10" d="M-2.778,1372.333c-2.457-1.977-5.108-2.921-8.333-2.778"/>
<path fill="none" stroke="#FFFFFF" stroke-miterlimit="10" d="M216.667,1419.555c-16.321-3.505-30.967-17.723-44.444-27.777"/>
<path fill="none" stroke="#FFFFFF" stroke-miterlimit="10" d="M188.889,1361.222c-2.786-3.152-4.717-7.009-5.556-11.111"/>
<path fill="none" stroke="#FFFFFF" stroke-miterlimit="10" d="M258.333,1411.222c0.987-1.975,1.791-3.582,2.778-5.556"/>
<path fill="none" stroke="#FFFFFF" stroke-miterlimit="10" d="M227.778,1341.777c0-1.852,0-3.704,0-5.556"/>
<path fill="none" stroke="#FFFFFF" stroke-miterlimit="10" d="M230.556,1252.889c0,1.852,0,3.703,0,5.555"/>
<path fill="none" stroke="#FFFFFF" stroke-miterlimit="10" d="M202.778,1222.333c2.072-0.221,2.999,0.705,2.778,2.777"/>
<path fill="none" stroke="#FFFFFF" stroke-miterlimit="10" d="M155.556,1211.222c-13.418-11.657-19.748-32.99-36.111-38.889"/>
<path fill="none" stroke="#FFFFFF" stroke-miterlimit="10" d="M144.444,1252.889c-10.43-9.01-18.935-20.158-27.778-30.556"/>
<path fill="none" stroke="#FFFFFF" stroke-miterlimit="10" d="M180.556,1227.889c0-1.029,0-10.467,0-5.556"/>
<path fill="none" stroke="#FFFFFF" stroke-miterlimit="10" d="M169.444,1300.11c-6.013-11.602-7.07-25.696-5.555-38.889"/>
<path fill="none" stroke="#FFFFFF" stroke-miterlimit="10" d="M116.667,1297.333c4.01-3.354,8.194-7.529,11.111-11.111"/>
<path fill="none" stroke="#FFFFFF" stroke-miterlimit="10" d="M194.444,702.888c1.839,13.101,4.518,26.201,8.333,38.889"/>
<path fill="none" stroke="#FFFFFF" stroke-miterlimit="10" d="M186.111,1286.222c-13.75-14.599-34.652-17.361-52.778-11.111"/>
<path fill="none" stroke="#FFFFFF" stroke-miterlimit="10" d="M72.222,1227.889c-2.564-2.174-3.525-5.081-2.778-8.334"/>
<path fill="none" stroke="#FFFFFF" stroke-miterlimit="10" d="M388.889,819.555c-7.741-55.295-3.848-112.812,0.554-168.096
	c3.205,6.749,4.061,13.523,5.001,20.874"/>
<path fill="none" stroke="#FFFFFF" stroke-miterlimit="10" d="M252.778,875.11c-1.843-1.528-2.406-4.611-5.2-6.109
	c0.207-3.514,2.286-5.604,5.2-7.779"/>
<path fill="none" stroke="#FFFFFF" stroke-miterlimit="10" d="M358.333,752.888c-0.81-10.682,3.146-20.507,11.111-27.778"/>
<path fill="none" stroke="#FFFFFF" stroke-miterlimit="10" d="M125,939c-2.778,0-5.556,0-8.333,0"/>
<path fill="none" stroke="#FFFFFF" stroke-miterlimit="10" d="M1436.111,294.555c14.457,24.839,23.333,49.292,27.777,77.778"/>
<path fill="none" stroke="#FFFFFF" stroke-miterlimit="10" d="M1827.777,233.444c95.602-17.926,103.878-83.545,42.006-152.833
	C1769.518-31.672,1596.91-22.946,1466.655,23.126c-105.244,37.226-265.656,127.722-244.001,262.103
	c13.968,86.676,90.678,146.767,169.013,173.215"/>
<path fill="none" stroke="#FFFFFF" stroke-miterlimit="10" d="M1672.223,283.444c-39.987-13.18,27.553-43.641,37.928-47.055
	c53.814-17.71,133.345-13.7,167.627,38.722"/>
<path fill="none" stroke="#FFFFFF" stroke-miterlimit="10" d="M2077.777,39c6.899-1.375,12.246-3.292,18.869-2.413
	c-86.716,37-191.887,44.671-282.758,69.079"/>
<path fill="none" stroke="#FFFFFF" stroke-miterlimit="10" d="M1561.111,155.666c-7.249-0.256-9.179-0.19-5.79,0.198
	c98.871-8.318,202.244-45.788,294.535-79.157c68.585-24.798,136.12-52.902,205.399-75.792c25.073-8.284,51.333-16.707,78.077-14.693
	"/>
<path fill="none" stroke="#FFFFFF" stroke-miterlimit="10" d="M263.889,1697c3.012-0.711,5.781-0.072,8,2"/>
<path fill="none" stroke="#FFFFFF" stroke-miterlimit="10" d="M121.889,1799c-2.6,1.048-5.2,1.701-8,2"/>
<path fill="none" stroke="#FFFFFF" stroke-miterlimit="10" d="M225.889,1423c2.954,0.604,5.73,1.994,8,4"/>
<path fill="none" stroke="#FFFFFF" stroke-miterlimit="10" d="M163.889,1387c-1.747-3.237-4.629-6.099-8-8"/>
<path fill="none" stroke="#FFFFFF" stroke-miterlimit="10" d="M243.889,1433c-4.175,0,2.66,0,2,0"/>
<g>
	<g>
		<path fill="none" stroke="#FFFFFF" stroke-miterlimit="10" d="M1743.889,1237c-1.965,0.302-3.943,0.595-5.936,0.878"/>
		<path fill="none" stroke="#FFFFFF" stroke-miterlimit="10" stroke-dasharray="11.8934,2.9733" d="M1735.012,1238.289
			c-50.743,6.937-109.268,7.503-156.725-11.402c-51.962-20.7-113.45-73.749-116.389-133.84
			c-2.155-44.069,31.563-74.904,71.173-96.018c13.204-7.038,27.062-12.996,40.464-18.003c13.401-4.041,26.348,2.453,37.727-12.303
			c12.491-4.517,26.044-10.541,40.258-10.062c14.215-1.251,29.09,2.504,44.228-7.563c15.138-1.376,30.537,0.698,45.798-3.117
			c15.262-3.203,30.386,1.272,44.973,3.276c14.586-0.923,28.635,9.706,41.746,11.617c11.243-1.78,21.798,5.051,31.411,16.08"/>
		<path fill="none" stroke="#FFFFFF" stroke-miterlimit="10" d="M1860.646,978.087c1.265,1.497,2.512,3.064,3.741,4.692
			c2.038-0.16,3.984,0.236,5.841,1.072"/>
		<path fill="none" stroke="#FFFFFF" stroke-miterlimit="10" stroke-dasharray="12.0206,3.0052" d="M1872.832,985.342
			c9.829,6.834,16.919,25.525,21.608,36.217c47.51,108.315-151.296,248.92-242.733,255.339
			c-131.902,9.259-137.523-133.201-90.123-232.991c7.9-16.632,17.273-32.078,27.779-45.439
			c10.507-24.997,22.147-27.677,34.582-32.927c16.113-12.575,31.31-20.086,45.51-18.256c14.199-4.52,27.402-1.771,39.529,5.946
			c12.128,6.506,23.179,7.691,33.073,24.531c9.895,17.706,18.634,19.658,26.137,37.5c7.503,14.037,13.771,29.299,18.723,44.85
			c9.904,31.103,14.546,63.362,13.289,89.288c-2.194,45.256-18.487,123.607-49.865,159.467
			c-23.423,26.768-52.144-0.367-70.007-22.541c-33.915-42.096-57.279-97.782-82.491-145.453
			c-15.354-29.032-60.709-68.49-56.265-103.434c1.672-13.145,8.695-24.098,18.576-32.917c9.882-8.818,22.622-15.502,35.727-20.106
			c13.105-9.174,26.575-3.854,37.918-7.636c15.047-8.157,30.518-4.059,46.181,2.019c15.664-2.531,31.521,5.369,47.345,7.854
			c15.822,3.984,31.61,9.877,47.135,10.362c12.969-1.523,25.753,10.427,38.221,10.836"/>
		<path fill="none" stroke="#FFFFFF" stroke-miterlimit="10" d="M1814.184,1007.841c1.951-0.088,3.895-0.484,5.83-1.286
			c1.696,1.162,3.478,2.052,5.328,2.733"/>
		<path fill="none" stroke="#FFFFFF" stroke-miterlimit="10" stroke-dasharray="12.0343,3.0086" d="M1828.216,1010.174
			c8.566,2.169,18.356,0.814,27.951,1.585c12.833,2.283,25.314,5.764,34.046,12.389c8.732,6.625,13.715,16.396,11.549,31.257
			c-6.155,42.23-54.016,88.256-87.196,110.232c-46.804,30.999-117.474,58.353-174.271,57.673
			c-45.098-0.54-98.774-32.653-134.089-59.755c-22.011-16.892-42.387-41.944-46.904-70.103
			c-4.327-26.975,10.741-43.267,28.491-62.452c23.69-25.605,75.78-65.235,81.824-104.229"/>
		<path fill="none" stroke="#FFFFFF" stroke-miterlimit="10" d="M1569.824,925.287c0.249-1.998,0.375-3.993,0.367-5.984
			c2.544-0.438,5.072-0.4,7.697-0.302"/>
	</g>
</g>
<path fill="none" stroke="#FFFFFF" stroke-miterlimit="10" d="M-92.111,1245c-3.289,0.924-8.408,0.072-11.748-0.303
	c-0.539-2.635-1.919-5.088-2.252-7.697"/>
<path fill="none" stroke="#FFFFFF" stroke-miterlimit="10" d="M925.889,1657c-6.498-6.22-13.36-11.921-20-18"/>
<path fill="none" stroke="#FFFFFF" stroke-miterlimit="10" d="M263.889,1379c0-2.667,0-5.333,0-8"/>
<path fill="none" stroke="#FFFFFF" stroke-miterlimit="10" d="M287.889,1261c0-0.667,0-1.333,0-2"/>
</svg>
