<?xml version="1.0" encoding="utf-8"?>
<!-- Generator: Adobe Illustrator 15.0.1, SVG Export Plug-In . SVG Version: 6.00 Build 0)  -->
<!DOCTYPE svg PUBLIC "-//W3C//DTD SVG 1.1//EN" "http://www.w3.org/Graphics/SVG/1.1/DTD/svg11.dtd">
<svg version="1.1" id="Layer_1" xmlns="http://www.w3.org/2000/svg" xmlns:xlink="http://www.w3.org/1999/xlink" x="0px" y="0px"
	 width="161.808px" height="32.297px" viewBox="0 0 161.808 32.297" enable-background="new 0 0 161.808 32.297"
	 xml:space="preserve">
<g>
	<path fill="#C1272D" d="M1.65,4.664h3.27v18.09h1.8v2.909H1.65V4.664z"/>
	<path fill="#C1272D" d="M15.93,14.623v-1.35c-0.39-0.18-0.99-0.27-1.59-0.27c-1.561,0-2.851,1.26-2.851,2.85v0.54H16.8v3h-5.311
		v0.659c0,1.59,1.29,2.851,2.851,2.851c0.6,0,1.2-0.091,1.62-0.271v-1.379h2.909v3.42c-0.239,0.209-2.1,1.379-4.529,1.379
		c-3.39,0-6.12-2.43-6.12-5.819v-4.56c0-3.39,2.73-5.82,6.12-5.82c2.159,0,3.81,0.87,4.529,1.41v3.36H15.93z"/>
	<path fill="#C1272D" d="M22.71,13.183H20.7v-3h2.01v-3.81l3.27-0.63v4.439h2.28v3h-2.28v9.57h2.28v2.909H20.7v-2.909h2.01V13.183z"
		/>
	<path fill="#C1272D" d="M53.219,15.313c0-1.23-1.08-2.31-2.34-2.31c-1.32,0-2.34,1.05-2.34,2.31v10.35h-3.271v-10.35
		c0-1.17-0.989-2.31-2.34-2.31c-1.35,0-2.34,1.08-2.34,2.31v7.44h1.53v2.909h-4.8v-10.56c0-2.67,2.13-5.25,5.25-5.25
		c2.399,0,3.72,1.44,4.319,2.28c0.601-0.87,1.98-2.28,4.32-2.28c3.06,0,5.279,2.55,5.279,5.25v10.56h-4.8v-2.909h1.53V15.313z"/>
	<path fill="#C1272D" d="M66.539,14.623v-1.35c-0.39-0.18-0.99-0.27-1.59-0.27c-1.561,0-2.851,1.26-2.851,2.85v0.54h5.311v3h-5.311
		v0.659c0,1.59,1.29,2.851,2.851,2.851c0.6,0,1.2-0.091,1.62-0.271v-1.379h2.909v3.42c-0.239,0.209-2.1,1.379-4.529,1.379
		c-3.39,0-6.12-2.43-6.12-5.819v-4.56c0-3.39,2.73-5.82,6.12-5.82c2.159,0,3.81,0.87,4.529,1.41v3.36H66.539z"/>
	<path fill="#C1272D" d="M85.769,14.623v-1.35c-0.391-0.18-0.99-0.27-1.59-0.27c-1.561,0-2.851,1.26-2.851,2.85v0.54h5.311v3h-5.311
		v0.659c0,1.59,1.29,2.851,2.851,2.851c0.6,0,1.199-0.091,1.62-0.271v-1.379h2.909v3.42c-0.239,0.209-2.1,1.379-4.529,1.379
		c-3.39,0-6.12-2.43-6.12-5.819v-4.56c0-3.39,2.73-5.82,6.12-5.82c2.16,0,3.81,0.87,4.529,1.41v3.36H85.769z"/>
	<path fill="#C1272D" d="M99.238,10.183h2.67v2.22c-0.479,0.75-3.18,4.83-3.569,5.43c0.6,0.989,3.06,4.68,3.63,5.579v2.25h-2.641
		c-0.239-0.39-2.159-3.63-3.42-5.85l-3.42,5.85h-2.64v-2.25l3.63-5.579l-3.569-5.43v-2.22h2.67l3.329,5.7L99.238,10.183z"/>
	<path fill="#C1272D" d="M109.019,27.913v2.909h-5.1V10.183h3.27v2.13c0.3-0.45,1.2-1.8,1.5-2.28c0.45-0.18,1.14-0.24,1.649-0.24
		c2.94,0,5.4,2.34,5.4,5.399v5.43c0,2.939-2.431,5.37-5.4,5.37c-0.42,0-1.319-0.12-1.71-0.271c-0.3-0.449-1.17-1.799-1.439-2.22
		v4.41H109.019z M112.468,15.583c0-1.47-1.199-2.64-2.64-2.64c-1.439,0-2.64,1.17-2.64,2.64v4.62c0,1.471,1.2,2.641,2.64,2.641
		c1.44,0,2.64-1.17,2.64-2.641V15.583z"/>
	<path fill="#C1272D" d="M118.229,4.664h3.27v18.09h1.8v2.909h-5.069V4.664z"/>
	<path fill="#C1272D" d="M136.617,10.183v15.479h-3.27v-2.13c-0.3,0.45-1.2,1.8-1.5,2.279c-0.45,0.181-1.14,0.24-1.649,0.24
		c-2.94,0-5.4-2.34-5.4-5.399v-5.43c0-2.94,2.43-5.37,5.4-5.37c0.42,0,1.319,0.12,1.709,0.24c0.301,0.48,1.17,1.83,1.44,2.25v-2.16
		H136.617z M128.067,20.263c0,1.47,1.17,2.64,2.641,2.64c1.439,0,2.64-1.17,2.64-2.64v-4.62c0-1.47-1.2-2.64-2.64-2.64
		c-1.471,0-2.641,1.17-2.641,2.64V20.263z"/>
	<path fill="#C1272D" d="M140.728,25.663V13.093h-1.8v-2.91h5.069v15.479H140.728z M140.338,6.253c0-1.08,0.899-1.95,2.01-1.95
		c1.14,0,2.04,0.87,2.04,1.95c0,1.11-0.9,1.98-2.04,1.98C141.237,8.233,140.338,7.363,140.338,6.253z"/>
	<path fill="#C1272D" d="M150.717,12.343c0.33-0.54,0.96-1.5,1.2-1.89c0.3-0.21,1.38-0.6,2.37-0.6c2.79,0,4.979,2.22,4.979,4.92
		v10.89h-4.5v-2.909h1.23v-7.351c0-1.41-1.2-2.49-2.55-2.49c-1.2,0-2.49,0.96-2.49,2.49v7.351h1.229v2.909h-4.499V10.183h3.029
		V12.343z"/>
</g>
</svg>
