<?xml version="1.0" encoding="utf-8"?>
<!-- Generator: Adobe Illustrator 15.0.1, SVG Export Plug-In . SVG Version: 6.00 Build 0)  -->
<!DOCTYPE svg PUBLIC "-//W3C//DTD SVG 1.1//EN" "http://www.w3.org/Graphics/SVG/1.1/DTD/svg11.dtd">
<svg version="1.1" id="Layer_1" xmlns="http://www.w3.org/2000/svg" xmlns:xlink="http://www.w3.org/1999/xlink" x="0px" y="0px"
	 width="176.444px" height="177.096px" viewBox="0 0 176.444 177.096" enable-background="new 0 0 176.444 177.096"
	 xml:space="preserve">
<g>
	<path fill="#FFFFFF" d="M96.058,109.896c-0.112,0-0.231-0.139-0.469-0.428l-0.076-0.094c-0.563-0.682-1.207-1.377-1.888-2.111
		c-2.199-2.377-4.693-5.071-4.756-7.844l-0.018-4.172c-0.014-0.153,0.011-0.268,0.066-0.329c0.026-0.028,0.058-0.043,0.093-0.043
		c0.069,0,0.151,0.054,0.217,0.146c0.132,0.182,1.46,2.01,1.46,2.01c0.188,0.259,0.418,0.402,0.647,0.402
		c0.194,0,0.365-0.107,0.456-0.284c0.126-0.248,0.073-0.572-0.142-0.868l-2.627-3.616c-0.007-0.01-0.273-0.409-0.681-0.409
		c-0.04,0-0.08,0.004-0.121,0.012c-0.039-0.008-0.08-0.012-0.12-0.012c-0.406,0-0.673,0.397-0.684,0.414l-2.624,3.611
		c-0.214,0.296-0.268,0.62-0.142,0.868c0.091,0.178,0.261,0.284,0.456,0.284c0.229,0,0.459-0.144,0.647-0.402
		c0,0,1.328-1.828,1.461-2.011c0.065-0.091,0.146-0.146,0.216-0.146c0.035,0,0.067,0.016,0.094,0.044
		c0.056,0.062,0.08,0.176,0.067,0.313l-0.019,4.191c-0.064,2.771-2.558,5.464-4.759,7.841c-0.68,0.734-1.323,1.427-1.887,2.111
		l-0.076,0.092c-0.238,0.289-0.356,0.428-0.469,0.428c-0.162,0-0.457-0.229-0.946-0.652c-0.141-0.111-3.26-2.601-1.181-5.612
		l1.537-2.113c0.251-0.345,0.065-0.726-0.069-0.878l-0.026-0.031l-0.037-0.016c-0.016-0.007-0.149-0.063-0.319-0.063
		c-0.224,0-0.409,0.094-0.537,0.269l-1.537,2.118c-0.754,0.986-1.721,1.487-2.871,1.487c-1.504,0-2.808-0.868-2.82-0.878
		c-0.576-0.346-0.889-0.561-0.925-0.713c-0.026-0.111,0.09-0.292,0.265-0.565l0.065-0.102c0.475-0.747,0.937-1.574,1.426-2.448
		c1.581-2.826,3.372-6.03,5.988-6.945l3.963-1.309c0.093-0.038,0.167-0.056,0.23-0.056c0.048,0,0.132,0.011,0.166,0.077
		c0.033,0.065,0.009,0.168-0.064,0.269l-1.46,2.009c-0.212,0.292-0.267,0.589-0.15,0.816c0.088,0.174,0.264,0.276,0.47,0.276
		c0.249,0,0.501-0.148,0.69-0.409l2.627-3.615c0.011-0.014,0.366-0.465,0.131-0.886c-0.056-0.477-0.608-0.634-0.633-0.641
		l-4.244-1.38c-0.121-0.039-0.239-0.06-0.353-0.06c-0.346,0-0.619,0.197-0.664,0.479c-0.036,0.233,0.099,0.564,0.603,0.729
		l2.362,0.768c0.132,0.043,0.215,0.123,0.211,0.203c-0.004,0.077-0.097,0.177-0.295,0.221l-3.993,1.276
		c-0.484,0.146-1.02,0.22-1.586,0.22l0,0c-2.314,0-4.869-1.18-7.339-2.321c-0.909-0.421-1.769-0.817-2.592-1.143l-0.111-0.044
		c-0.303-0.119-0.503-0.197-0.548-0.301c-0.061-0.146,0.067-0.504,0.324-1.113c0.015-0.039,1.138-3.042,3.782-3.042
		c0.381,0,0.781,0.063,1.19,0.185c0,0,2.234,0.726,2.484,0.809c0.067,0.021,0.137,0.032,0.204,0.032c0.385,0,0.601-0.354,0.61-0.369
		l0.021-0.035l0.004-0.041c0.018-0.201-0.056-0.619-0.461-0.75c-0.251-0.081-2.489-0.809-2.489-0.809
		c-3.453-1.215-2.387-5.061-2.339-5.225c0.225-0.97,0.318-1.124,0.505-1.124c0.114,0,0.288,0.045,0.508,0.103l0.116,0.031
		c0.856,0.219,1.785,0.403,2.768,0.598c3.178,0.63,6.778,1.345,8.458,3.55l2.468,3.365c0.141,0.162,0.156,0.284,0.126,0.349
		c-0.031,0.07-0.114,0.08-0.16,0.08c-0.043,0-0.089-0.008-0.139-0.023c-0.215-0.07-2.362-0.769-2.362-0.769
		c-0.127-0.041-0.249-0.062-0.361-0.062c-0.322,0-0.558,0.175-0.602,0.445c-0.042,0.268,0.136,0.629,0.625,0.789l4.253,1.382
		c0.009,0.004,0.164,0.06,0.356,0.06c0.216,0,0.396-0.072,0.524-0.21c0.436-0.202,0.414-0.774,0.412-0.8l0.001-4.462
		c0-0.549-0.327-0.845-0.635-0.845c-0.29,0-0.583,0.249-0.583,0.804v2.483c0,0.161-0.065,0.268-0.16,0.268
		c-0.068,0-0.175-0.056-0.27-0.216l-2.449-3.401c-1.576-2.278-1.142-5.923-0.758-9.139c0.118-0.994,0.229-1.935,0.285-2.817
		l0.007-0.121c0.038-0.651,0.041-0.69,0.543-0.69c0.166,0,0.385,0.013,0.732,0.042c0.18,0.007,4.168,0.188,4.255,3.846v2.613
		c0,0.427,0.373,0.624,0.571,0.669l0.04,0.01l0.039-0.01c0.198-0.045,0.571-0.242,0.571-0.669v-2.618
		c0.087-3.658,4.075-3.834,4.245-3.84c0.356-0.03,0.576-0.043,0.741-0.043c0.502,0,0.505,0.039,0.543,0.69l0.007,0.121
		c0.056,0.883,0.168,1.823,0.286,2.817c0.383,3.216,0.817,6.86-0.761,9.142l-2.438,3.386c-0.104,0.173-0.21,0.229-0.277,0.229
		c-0.039,0-0.072-0.017-0.1-0.05c-0.039-0.048-0.06-0.125-0.06-0.216v-2.484c0-0.555-0.294-0.804-0.584-0.804
		c-0.308,0-0.635,0.295-0.635,0.844v4.471c-0.002,0.017-0.023,0.59,0.414,0.791c0.128,0.138,0.308,0.21,0.523,0.21
		c0.192,0,0.348-0.057,0.365-0.063l4.243-1.379c0.49-0.158,0.668-0.519,0.626-0.787c-0.043-0.271-0.279-0.446-0.602-0.446
		c-0.112,0-0.233,0.021-0.361,0.063c0,0-2.147,0.697-2.363,0.767c-0.049,0.016-0.095,0.023-0.138,0.023
		c-0.046,0-0.13-0.01-0.161-0.08c-0.029-0.063-0.014-0.187,0.117-0.335l2.479-3.381c1.68-2.202,5.278-2.915,8.454-3.544
		c0.984-0.195,1.913-0.379,2.771-0.6l0.116-0.03c0.219-0.058,0.392-0.103,0.508-0.103c0.186,0,0.279,0.154,0.503,1.116
		c0.049,0.172,1.109,4.02-2.343,5.233l-2.485,0.808c-0.405,0.131-0.479,0.548-0.461,0.75l0.004,0.04l0.021,0.035
		c0.01,0.016,0.226,0.37,0.611,0.37c0.067,0,0.136-0.011,0.203-0.033c0.251-0.082,2.489-0.809,2.489-0.809
		c0.405-0.121,0.806-0.184,1.186-0.184c2.649,0,3.767,3.004,3.777,3.033c0.262,0.618,0.389,0.977,0.329,1.122
		c-0.045,0.104-0.244,0.182-0.547,0.3l-0.113,0.046c-0.822,0.325-1.682,0.722-2.591,1.142c-2.47,1.141-5.025,2.321-7.34,2.321
		c-0.566,0-1.102-0.075-1.589-0.221l-3.975-1.273c-0.214-0.049-0.306-0.147-0.31-0.226c-0.004-0.08,0.079-0.16,0.21-0.202
		l2.363-0.768c0.504-0.163,0.64-0.494,0.602-0.728c-0.044-0.282-0.317-0.479-0.664-0.479c-0.112,0-0.23,0.02-0.352,0.06
		l-4.253,1.382c-0.017,0.004-0.568,0.16-0.625,0.638c-0.234,0.42,0.119,0.871,0.135,0.891l2.623,3.611
		c0.189,0.26,0.44,0.409,0.689,0.409c0.207,0,0.383-0.104,0.472-0.277c0.115-0.228,0.061-0.524-0.151-0.815l-1.46-2.01
		c-0.072-0.101-0.098-0.204-0.064-0.27c0.035-0.066,0.119-0.076,0.166-0.076c0.064,0,0.138,0.017,0.216,0.051l3.98,1.313
		c2.614,0.917,4.405,4.121,5.985,6.948c0.488,0.874,0.949,1.7,1.424,2.446l0.064,0.103c0.176,0.273,0.292,0.454,0.267,0.565
		c-0.036,0.153-0.351,0.367-0.917,0.709c-0.021,0.014-1.324,0.881-2.827,0.881c-1.151,0-2.117-0.502-2.874-1.492
		c0,0-1.38-1.901-1.536-2.114c-0.127-0.175-0.313-0.268-0.536-0.268c-0.171,0-0.305,0.056-0.319,0.062l-0.038,0.017l-0.027,0.03
		c-0.132,0.153-0.318,0.533-0.066,0.878l1.537,2.118c2.08,3.012-1.043,5.497-1.177,5.602
		C96.514,109.666,96.218,109.896,96.058,109.896z"/>
</g>
</svg>
