<?xml version="1.0" encoding="utf-8"?>
<!-- Generator: Adobe Illustrator 15.0.1, SVG Export Plug-In . SVG Version: 6.00 Build 0)  -->
<!DOCTYPE svg PUBLIC "-//W3C//DTD SVG 1.1//EN" "http://www.w3.org/Graphics/SVG/1.1/DTD/svg11.dtd">
<svg version="1.1" id="Layer_1" xmlns="http://www.w3.org/2000/svg" xmlns:xlink="http://www.w3.org/1999/xlink" x="0px" y="0px"
	 width="300px" height="148.839px" viewBox="0 0 300 148.839" enable-background="new 0 0 300 148.839" xml:space="preserve">
<path fill="#C1272D" d="M137.094,46.604H57.731c-21.098,0-43.336,18.762-52.845,27.823c9.491,9.063,31.687,27.805,52.845,27.805
	h79.363V46.604z"/>
<path fill="#C1272D" d="M162.908,46.604h79.359c21.099,0,43.34,18.762,52.847,27.823c-9.49,9.063-31.688,27.805-52.847,27.805
	h-79.359V46.604L162.908,46.604z"/>
<path fill="#FF343B" d="M232.457,74.424v-0.009c17.643-6.317,30.034-23.835,29.391-44.019l-87.701,2.944H150h-24.145l-87.702-2.944
	C37.51,50.58,49.901,68.098,67.545,74.415v0.009c-17.643,6.316-30.035,23.833-29.392,44.02l87.702-2.944H150h24.146l87.701,2.944
	C262.491,98.257,250.1,80.74,232.457,74.424z"/>
<path fill="#FFFFFF" d="M267.604,121.387l-92.904-3.04h-49.492l-92.813,3.04l-0.091-2.853c-0.214-6.544,0.871-12.896,3.225-18.921
	C21.516,93.165,9.21,82.5,2.916,76.489l-2.164-2.064l2.165-2.063c6.3-6.005,18.612-16.667,32.616-23.122
	c-2.359-6.032-3.445-12.387-3.231-18.937l0.091-2.851l92.907,3.037l49.491-0.001l92.813-3.035l0.093,2.851
	c0.216,6.545-0.87,12.903-3.23,18.937c14.005,6.454,26.318,17.117,32.616,23.122l2.165,2.063l-2.164,2.064
	c-6.294,6.011-18.601,16.676-32.612,23.125c2.355,6.03,3.441,12.381,3.226,18.921L267.604,121.387z M150,112.643h24.794
	l87.201,2.852c-0.185-5.608-1.473-11.033-3.841-16.168l-1.242-2.696l2.74-1.136c12.75-5.283,24.395-14.761,31.285-21.067
	c-6.895-6.305-18.547-15.781-31.293-21.074l-2.738-1.137l1.242-2.692c2.371-5.139,3.662-10.571,3.849-16.183l-87.109,2.85h-49.68
	l-87.202-2.85c0.186,5.615,1.478,11.046,3.848,16.183l1.242,2.692l-2.739,1.137C27.613,58.647,15.96,68.123,9.066,74.429
	c6.89,6.307,18.535,15.786,31.286,21.068l2.741,1.136l-1.243,2.695c-2.367,5.131-3.656,10.557-3.843,16.17l87.109-2.852H150V112.643
	z"/>
<g>
	<path fill="#FFFFFF" d="M86.229,83.867c3.595,0,5.648-2.869,5.648-5.351c0-2.992-2.482-5.346-5.648-5.346v2.865
		c-5.731,0-9.754-4.277-9.754-9.198c0-4.919,3.764-9.156,9.754-9.156c4.279,0,7.06,1.283,8.216,2.31v5.347h-4.41v-2.138
		c-0.598-0.256-2.138-0.728-3.806-0.728c-2.781,0-4.577,2.183-4.577,4.363c0,2.438,2.14,4.407,4.577,4.407v-2.866
		c6.716,0,10.868,5.049,10.868,10.139c0,5.477-4.366,10.186-10.825,10.186c-4.407,0-7.959-1.969-9.199-3.04V80.23h4.406v2.48
		C82.293,83.18,84.134,83.867,86.229,83.867z"/>
	<path fill="#FFFFFF" d="M116.354,69.232c-0.686,1.069-4.409,6.889-5.006,7.743l5.093,7.958v3.211h-3.767
		c-0.513-0.898-4.191-7.446-5.048-8.899h-2.567v4.749h1.755v4.15h-6.417V58.195h6.374v4.148h-1.71v12.622h2.61l2.695-4.75h-1.881
		v-4.15h7.871L116.354,69.232L116.354,69.232z"/>
	<path fill="#FFFFFF" d="M129.062,72.4v-1.927c-0.555-0.257-1.411-0.386-2.268-0.386c-2.223,0-4.064,1.797-4.064,4.066v0.77h7.572
		v4.279h-7.572v0.941c0,2.268,1.841,4.063,4.064,4.063c0.857,0,1.712-0.125,2.312-0.385v-1.968h4.15v4.879
		c-0.344,0.3-2.996,1.969-6.463,1.969c-4.833,0-8.726-3.469-8.726-8.301v-6.503c0-4.835,3.893-8.301,8.726-8.301
		c3.083,0,5.435,1.241,6.463,2.013v4.792L129.062,72.4L129.062,72.4z"/>
	<path fill="#FFFFFF" d="M138.735,70.344h-2.867v-4.278h2.867v-5.434l4.665-0.897v6.332h3.251v4.278H143.4v13.649h3.251v4.151
		h-10.783v-4.151h2.867V70.344L138.735,70.344z"/>
	<path fill="#FFFFFF" d="M159.789,72.4v-1.927c-0.556-0.257-1.411-0.386-2.268-0.386c-2.224,0-4.065,1.797-4.065,4.066v5.991
		c0,2.269,1.842,4.063,4.065,4.063c0.856,0,1.712-0.126,2.31-0.383v-1.969h4.151v4.877c-0.344,0.3-3.039,1.97-6.464,1.97
		c-4.832,0-8.727-3.467-8.727-8.301v-6.503c0-4.835,3.893-8.301,8.727-8.301c3.082,0,5.434,1.241,6.464,2.013v4.792h-4.193V72.4z"/>
	<path fill="#FFFFFF" d="M177.632,83.993h1.757V73.511c0-2.01-1.714-3.55-3.64-3.55c-1.711,0-3.55,1.369-3.55,3.55v10.481h1.755
		v4.151h-6.418V58.195h6.158v4.148h-1.495v2.995c0,0.301-0.258,3.466-0.343,3.809c0.472-0.77,1.37-2.139,1.712-2.696
		c0.428-0.299,1.968-0.856,3.382-0.856c3.978,0,7.103,3.167,7.103,7.019v15.529h-6.421V83.993z"/>
	<path fill="#FFFFFF" d="M198.387,72.4v-1.927c-0.555-0.257-1.411-0.386-2.266-0.386c-2.227,0-4.065,1.797-4.065,4.066v0.77h7.573
		v4.279h-7.573v0.941c0,2.268,1.839,4.063,4.065,4.063c0.854,0,1.711-0.125,2.309-0.385v-1.968h4.15v4.879
		c-0.344,0.3-2.994,1.969-6.462,1.969c-4.835,0-8.729-3.469-8.729-8.301v-6.503c0-4.835,3.892-8.301,8.729-8.301
		c3.08,0,5.435,1.241,6.462,2.013v4.792L198.387,72.4L198.387,72.4z"/>
	<path fill="#FFFFFF" d="M215.161,71.757v-1.413c-0.471-0.211-1.54-0.469-2.523-0.469c-1.668,0-2.779,1.241-2.779,2.651
		c0,1.541,1.282,2.653,2.779,2.653v-1.626c4.449,0,8.385,3.253,8.385,7.618c0,4.191-3.85,7.529-8.385,7.529
		c-4.15,0-6.461-1.883-7.272-2.61v-4.235h4.105v1.713c0.471,0.21,1.883,0.728,3.167,0.728c2.095,0,3.551-1.329,3.551-3.124v-0.087
		c0-1.668-1.582-3.037-3.551-3.037V79.5c-3.765,0-7.702-2.693-7.702-6.974c0-3.85,3.424-6.974,7.745-6.974
		c3.25,0,5.476,1.37,6.632,2.14v4.065H215.161L215.161,71.757z"/>
</g>
</svg>
