<?xml version="1.0" encoding="utf-8"?>
<!-- Generator: Adobe Illustrator 15.0.1, SVG Export Plug-In . SVG Version: 6.00 Build 0)  -->
<!DOCTYPE svg PUBLIC "-//W3C//DTD SVG 1.1//EN" "http://www.w3.org/Graphics/SVG/1.1/DTD/svg11.dtd">
<svg version="1.1" id="Layer_1" xmlns="http://www.w3.org/2000/svg" xmlns:xlink="http://www.w3.org/1999/xlink" x="0px" y="0px"
	 width="300px" height="229.333px" viewBox="0 -39.748 300 229.333" enable-background="new 0 -39.748 300 229.333"
	 xml:space="preserve">
<g opacity="0.69">
	<path d="M37.702,92.151c6.388,0,10.033-5.095,10.033-9.503c0-5.315-4.409-9.497-10.033-9.497v5.089
		c-10.178,0-17.325-7.598-17.325-16.338c0-8.737,6.685-16.263,17.325-16.263c7.602,0,12.541,2.279,14.593,4.104v9.497h-7.832v-3.797
		c-1.062-0.456-3.799-1.293-6.761-1.293c-4.939,0-8.129,3.877-8.129,7.749c0,4.33,3.802,7.828,8.129,7.828v-5.089
		c11.929,0,19.303,8.967,19.303,18.009c0,9.727-7.755,18.09-19.227,18.09c-7.828,0-14.136-3.496-16.339-5.396v-9.647h7.827v4.407
		C30.712,90.933,33.981,92.151,37.702,92.151z"/>
	<path d="M91.21,66.158c-1.217,1.899-7.831,12.236-8.892,13.753l9.046,14.135v5.703h-6.691c-0.91-1.594-7.445-13.225-8.966-15.803
		h-4.561v8.431h3.117v7.372H62.867V46.554h11.32v7.367H71.15V76.34h4.636l4.788-8.437h-3.342v-7.371h13.981L91.21,66.158
		L91.21,66.158z"/>
	<path d="M113.781,71.786v-3.422c-0.984-0.458-2.506-0.686-4.028-0.686c-3.949,0-7.22,3.191-7.22,7.222v1.368h13.45v7.6h-13.449
		v1.672c0,4.029,3.27,7.217,7.22,7.217c1.521,0,3.042-0.221,4.106-0.684v-3.496h7.372v8.666c-0.61,0.535-5.32,3.496-11.479,3.496
		c-8.584,0-15.499-6.162-15.499-14.744V74.444c0-8.587,6.916-14.744,15.499-14.744c5.476,0,9.654,2.204,11.479,3.574v8.511
		L113.781,71.786L113.781,71.786z"/>
	<path d="M130.962,68.133h-5.091v-7.599h5.091v-9.652l8.284-1.594v11.247h5.775v7.598h-5.775v24.243h5.775v7.373H125.87v-7.373
		h5.091L130.962,68.133L130.962,68.133z"/>
	<path d="M168.36,71.786v-3.422c-0.989-0.458-2.508-0.686-4.031-0.686c-3.948,0-7.219,3.191-7.219,7.222v10.641
		c0,4.031,3.272,7.215,7.219,7.215c1.521,0,3.042-0.221,4.104-0.678V88.58h7.372v8.662c-0.61,0.535-5.397,3.5-11.481,3.5
		c-8.583,0-15.499-6.16-15.499-14.746v-11.55c0-8.587,6.914-14.744,15.499-14.744c5.474,0,9.654,2.204,11.481,3.574v8.511h-7.445
		V71.786z"/>
	<path d="M200.051,92.377h3.12v-18.62c0-3.57-3.044-6.305-6.466-6.305c-3.039,0-6.305,2.432-6.305,6.305v18.617h3.116v7.373h-11.397
		V46.554h10.935v7.367H190.4v5.32c0,0.535-0.459,6.157-0.61,6.766c0.839-1.367,2.435-3.8,3.041-4.789
		c0.761-0.532,3.497-1.521,6.009-1.521c7.064,0,12.617,5.626,12.617,12.468v27.582h-11.405L200.051,92.377L200.051,92.377z"/>
	<path d="M236.915,71.786v-3.422c-0.983-0.458-2.506-0.686-4.022-0.686c-3.957,0-7.221,3.191-7.221,7.222v1.368h13.451v7.6h-13.451
		v1.672c0,4.029,3.266,7.217,7.221,7.217c1.517,0,3.039-0.221,4.1-0.684v-3.496h7.372v8.666c-0.612,0.535-5.319,3.496-11.477,3.496
		c-8.588,0-15.506-6.162-15.506-14.744V74.444c0-8.587,6.912-14.744,15.506-14.744c5.469,0,9.652,2.204,11.477,3.574v8.511
		L236.915,71.786L236.915,71.786z"/>
	<path d="M266.71,70.642v-2.509c-0.839-0.375-2.736-0.833-4.48-0.833c-2.965,0-4.938,2.205-4.938,4.708
		c0,2.737,2.278,4.712,4.938,4.712v-2.889c7.901,0,14.892,5.779,14.892,13.532c0,7.443-6.837,13.374-14.892,13.374
		c-7.372,0-11.477-3.347-12.917-4.639v-7.52h7.289v3.043c0.837,0.372,3.346,1.292,5.627,1.292c3.719,0,6.307-2.362,6.307-5.55
		v-0.152c0-2.963-2.811-5.395-6.307-5.395v2.578c-6.688,0-13.683-4.782-13.683-12.387c0-6.838,6.083-12.387,13.758-12.387
		c5.774,0,9.729,2.434,11.778,3.801v7.22L266.71,70.642L266.71,70.642z"/>
</g>
</svg>
