<?xml version="1.0" encoding="utf-8"?>
<!-- Generator: Adobe Illustrator 15.0.1, SVG Export Plug-In . SVG Version: 6.00 Build 0)  -->
<!DOCTYPE svg PUBLIC "-//W3C//DTD SVG 1.1//EN" "http://www.w3.org/Graphics/SVG/1.1/DTD/svg11.dtd">
<svg version="1.1" id="Layer_1" xmlns="http://www.w3.org/2000/svg" xmlns:xlink="http://www.w3.org/1999/xlink" x="0px" y="0px"
	 width="300px" height="148.839px" viewBox="0 0 300 148.839" enable-background="new 0 0 300 148.839" xml:space="preserve">
<g opacity="0.69">
	<path d="M28.271,93.762c6.93,0,10.885-5.528,10.885-10.312c0-5.766-4.783-10.302-10.885-10.302v5.521
		c-11.042,0-18.796-8.242-18.796-17.725c0-9.479,7.253-17.644,18.796-17.644c8.247,0,13.606,2.472,15.833,4.452v10.303h-8.497v-4.12
		c-1.152-0.494-4.121-1.403-7.335-1.403c-5.358,0-8.819,4.207-8.819,8.407c0,4.698,4.125,8.493,8.819,8.493V63.91
		c12.942,0,20.943,9.729,20.943,19.539c0,10.553-8.414,19.627-20.86,19.627c-8.493,0-15.337-3.793-17.727-5.855V86.753h8.491v4.781
		C20.687,92.44,24.234,93.762,28.271,93.762z"/>
	<path d="M86.323,65.561c-1.32,2.06-8.496,13.274-9.646,14.921l9.814,15.336v6.188h-7.259c-0.987-1.73-8.077-14.348-9.727-17.146
		h-4.948v9.148h3.382v7.998H55.573V44.292h12.282v7.993h-3.295v24.323h5.03l5.194-9.153h-3.626v-7.997h15.168L86.323,65.561
		L86.323,65.561z"/>
	<path d="M110.811,71.666v-3.713c-1.068-0.496-2.719-0.744-4.37-0.744c-4.285,0-7.833,3.462-7.833,7.835v1.484H113.2v8.246H98.609
		v1.813c0,4.371,3.547,7.83,7.833,7.83c1.65,0,3.3-0.24,4.455-0.742v-3.793h7.998v9.402c-0.662,0.58-5.772,3.793-12.454,3.793
		c-9.313,0-16.815-6.685-16.815-15.996V74.551c0-9.317,7.503-15.996,16.815-15.996c5.941,0,10.474,2.391,12.454,3.878v9.234
		L110.811,71.666L110.811,71.666z"/>
	<path d="M129.451,67.704h-5.523V59.46h5.523V48.988l8.988-1.729v12.202h6.266v8.243h-6.266v26.301h6.266v8h-20.778v-8h5.523
		L129.451,67.704L129.451,67.704z"/>
	<path d="M170.025,71.666v-3.713c-1.072-0.496-2.72-0.744-4.372-0.744c-4.284,0-7.832,3.462-7.832,7.835v11.545
		c0,4.373,3.55,7.828,7.832,7.828c1.65,0,3.3-0.24,4.452-0.736v-3.794h7.998v9.397c-0.662,0.58-5.855,3.797-12.456,3.797
		c-9.312,0-16.815-6.683-16.815-15.998V74.552c0-9.317,7.501-15.996,16.815-15.996c5.939,0,10.474,2.391,12.456,3.878v9.234h-8.078
		V71.666z"/>
	<path d="M204.407,94.007h3.386V73.806c0-3.873-3.303-6.84-7.015-6.84c-3.297,0-6.841,2.638-6.841,6.84v20.197h3.382v8h-12.366
		V44.292h11.864v7.993h-2.88v5.772c0,0.581-0.498,6.68-0.662,7.34c0.911-1.483,2.642-4.122,3.3-5.195
		c0.825-0.577,3.794-1.65,6.519-1.65c7.665,0,13.688,6.104,13.688,13.527v29.924h-12.373L204.407,94.007L204.407,94.007z"/>
	<path d="M244.403,71.666v-3.713c-1.067-0.496-2.719-0.744-4.364-0.744c-4.293,0-7.834,3.462-7.834,7.835v1.484h14.594v8.246
		h-14.594v1.813c0,4.371,3.543,7.83,7.834,7.83c1.645,0,3.297-0.24,4.447-0.742v-3.793h7.998v9.402
		c-0.664,0.58-5.77,3.793-12.451,3.793c-9.317,0-16.822-6.685-16.822-15.996V74.551c0-9.317,7.499-15.996,16.822-15.996
		c5.934,0,10.473,2.391,12.451,3.878v9.234L244.403,71.666L244.403,71.666z"/>
	<path d="M276.728,70.426v-2.723c-0.909-0.407-2.968-0.903-4.861-0.903c-3.216,0-5.356,2.392-5.356,5.108
		c0,2.969,2.471,5.112,5.356,5.112v-3.134c8.572,0,16.156,6.27,16.156,14.682c0,8.075-7.418,14.51-16.156,14.51
		c-7.998,0-12.451-3.631-14.014-5.033v-8.158h7.909v3.301c0.907,0.404,3.629,1.402,6.104,1.402c4.035,0,6.842-2.563,6.842-6.021
		v-0.166c0-3.214-3.049-5.853-6.842-5.853v2.797c-7.256,0-14.844-5.188-14.844-13.438c0-7.419,6.599-13.439,14.925-13.439
		c6.265,0,10.555,2.64,12.78,4.124v7.833L276.728,70.426L276.728,70.426z"/>
</g>
</svg>
