<?xml version="1.0" encoding="utf-8"?>
<!-- Generator: Adobe Illustrator 15.0.1, SVG Export Plug-In . SVG Version: 6.00 Build 0)  -->
<!DOCTYPE svg PUBLIC "-//W3C//DTD SVG 1.1//EN" "http://www.w3.org/Graphics/SVG/1.1/DTD/svg11.dtd">
<svg version="1.1" id="Layer_1" xmlns="http://www.w3.org/2000/svg" xmlns:xlink="http://www.w3.org/1999/xlink" x="0px" y="0px"
	 width="176.444px" height="177.096px" viewBox="0 0 176.444 177.096" enable-background="new 0 0 176.444 177.096"
	 xml:space="preserve">
<path fill="none" stroke="#DBDBDB" stroke-width="1.5" stroke-linecap="round" stroke-linejoin="bevel" stroke-miterlimit="22.9256" d="
	M122.223,104.065l-1.489-0.886c-1.251-1.882-2.074-3.936-2.479-6.158c1.452-0.1,2.628-0.475,3.939-0.508 M103.454,125.792
	c-2.772-8.11-7.624-10.813-8.939-18.712 M83.075,71.229c-2.073-4.084-1.466-6.947,1.825-8.594 M84.72,128.646
	c-5.974-13.35-2.072-15.362-3.11-23.041 M54.912,64.1c5.244,5.058,11.581,6.096,17.372,9.142 M54.549,76.167
	c7.862,0.365,15.723,2.377,23.587,1.096c10.849,12.069-0.608,16.824-0.913,25.235c-1.876,5.901-5.442,5.8-7.681,14.628l-2.561,5.851
	 M86.319,88.352l3.454,0.017 M118.993,72.548l1.498,3.27 M114.854,73.664l1.327,2.668 M109.933,73.645l1.713,2.857 M117.053,62.515
	l2.088,2.515 M113.675,65.001l1.945,2.292 M109.327,66.523l2.311,2.479 M104.946,68.206l3.001,2.898 M105.03,74.104l2.265,3.152
	 M100.58,70.146l2.845,2.277 M57.157,65.127l2.061-2.501 M60.7,67.362l1.693-1.926 M64.681,69.144l2.141-2.4 M55.81,76.007
	l1.628-3.57 M68.377,71.162l2.902-2.83 M60.152,76.421l1.295-2.63 M72.924,72.449l2.872-2.303 M64.684,76.592l1.701-2.866
	 M69.152,77.138l2.132-2.961 M85.165,62.471c1.896-0.513,4.042-0.451,5.858,0.069 M82.359,67.143
	c4.206-1.186,8.152-1.021,11.921,0.07 M94.254,71.611c2.687,1.147,5.254,2.82,7.65,5.254 M83.3,71.209
	c3.488-0.754,6.621-0.787,9.396-0.1 M74.54,76.785c1.786-2.371,4.294-4.216,7.86-5.297 M80.057,77.347
	c5.209-3.65,10.613-3.662,16.216-0.034 M81.889,81.208c3.147-3.242,9.299-3.262,12.524-0.061 M83.315,85.442
	c2.29-3.348,7.651-3.076,9.78-0.161 M82.814,89.847c1.222,5.248,9.254,5.726,10.742,0.027 M80.614,94.621
	c3.662,4.528,10.611,5.001,14.521,0.714 M78.706,98.689c5.31,4.544,11.773,5.433,18.506,0.412 M103.743,124.231l4.479-2.448
	 M88.899,127.462l5.169-0.432 M84.439,127.037l3.003,0.425 M101.914,120.479l2.66-1.285 M88.187,123.301l3.213-0.15 M83.149,122.935
	l2.979,0.302 M99.395,116.778l3.729-1.547 M87.387,119.118l4.155-0.172 M81.595,118.412l4.246,0.627 M96.993,113.447l4.38-2.02
	 M86.975,114.93l4.219-0.145 M81.785,114.077l3.721,0.744 M95.896,109.408l3.703-1.777 M87.832,110.779l4.267-0.339 M82.346,110.008
	l3.73,0.676 M93.989,105.66l4.193-2.069 M88.188,106.613l4.812-0.651 M82.223,105.601l4.623,0.963 M81.104,105.168l-3.623-2.077
	 M78.32,108.475l-2.959-1.762 M76.057,112.006l-3.449-2.144 M74.051,115.663l-3.306-2.005 M71.795,119.193l-2.197-1.286
	 M70.475,123.212l-2.656-1.498 M122.285,112.601c-2.056-2.232-4.222-3.813-6.494-4.741c-3.228-5.778-3.429-10.287-5.957-16.24
	c1.524-0.156,3.045-0.454,4.569-0.896c2.957,0.263,5.276-0.485,7.752-0.49 M117.093,117.35c-1.23-2.018-3.222-3.281-6.391-3.819
	c-1.543-5.169-3.822-6.64-4.826-10.665c-0.646-7.544-5.332-10.605-4.571-18.413h2.921c6.176,1.391,8.048-1.073,11.937-0.509
	l6.222-0.762 M96.727,61.73c0.836,0.858,1.644,2.092,1.814,3.456l2.864-0.895c2.254-1.474,3.816-1.216,6.957-2.559 M68.343,61.73
	c3.399,1.021,4.905,1.36,8.649,2.96c-0.035-1.139,0.291-2.28,0.97-2.96 M54.45,99.734l2.168-2.987l-2.108-0.06 M54.52,113.568
	c0.396-0.919,0.997-1.563,1.807-1.925c1.726-10.351,7.403-10.484,9.39-20.104c-1.255-0.114-2.51-0.365-3.764-0.711
	c-2.52,0.284-4.996-0.679-7.559-0.438 M60.071,118.016c0.563-0.781,1.295-1.54,2.218-2.258c1.656-8.461,4.441-10.628,7.931-15.055
	c1.202-8.425,5.492-9.043,4.706-15.997c-3.208-1.12-5.566,1.292-12.368-0.807c-3.05,0.423-5.217-0.438-8.066-0.418 M129.202,88.548
	c0,22.63-18.351,40.98-40.979,40.98c-22.63,0-40.98-18.351-40.98-40.98c0-22.628,18.351-40.98,40.98-40.98
	C110.852,47.567,129.202,65.92,129.202,88.548 M122.215,61.73v67.724H54.49V61.73H122.215"/>
</svg>
